<?xml version="1.0" encoding="UTF-8"?>
<svg version="1.1" xmlns="http://www.w3.org/2000/svg" width="1024" height="1024" viewBox="0 0 1024 1024">
<path d="M0 0 C337.92 0 675.84 0 1024 0 C1024 337.92 1024 675.84 1024 1024 C686.08 1024 348.16 1024 0 1024 C0 686.08 0 348.16 0 0 Z " fill="#FCFDFD" transform="translate(0,0)"/>
<path d="M0 0 C2.50296941 0.00238944 5.00594064 0.00328869 7.50891113 0.0027771 C12.71292604 0.00588205 17.91666091 0.02228437 23.12060547 0.04931641 C29.13428443 0.08015721 35.1476113 0.09130264 41.16133928 0.0898453 C46.97703702 0.08862656 52.79264899 0.09902485 58.60832214 0.11542892 C61.07398477 0.12179985 63.53965491 0.12573651 66.00532532 0.12721634 C69.43011524 0.13153013 72.85457697 0.14898126 76.27929688 0.17041016 C77.30046097 0.16950378 78.32162506 0.16859741 79.37373352 0.16766357 C80.76503731 0.18045853 80.76503731 0.18045853 82.18444824 0.19351196 C83.39656605 0.1985395 83.39656605 0.1985395 84.63317108 0.20366859 C86.59375 0.4609375 86.59375 0.4609375 88.59375 2.4609375 C88.7890625 5.5 88.7890625 5.5 88.71875 9.0859375 C88.70070313 10.27445313 88.68265625 11.46296875 88.6640625 12.6875 C88.62925781 14.06035156 88.62925781 14.06035156 88.59375 15.4609375 C89.30055908 15.43999023 90.00736816 15.41904297 90.7355957 15.39746094 C108.78111855 14.93859032 125.84174933 16.09044679 143.59375 19.4609375 C144.5223584 19.63222168 145.4509668 19.80350586 146.40771484 19.97998047 C177.94737899 25.9922109 206.21508716 40.93787867 230.59375 61.4609375 C231.50447266 62.18603516 231.50447266 62.18603516 232.43359375 62.92578125 C241.18574308 69.89632257 241.18574308 69.89632257 242.03125 75.2109375 C241.59375 77.4609375 241.59375 77.4609375 239.59375 79.4609375 C237.23368713 80.00839013 234.92535778 80.45595682 232.5390625 80.84765625 C226.72979788 81.86826047 220.96378913 82.99054144 215.2109375 84.29296875 C214.50727051 84.45171982 213.80360352 84.61047089 213.07861328 84.77403259 C211.62511378 85.10284179 210.17178724 85.43241642 208.71862793 85.76272583 C195.40450874 88.78496804 182.07008869 91.61555139 168.67211914 94.24365234 C159.72264604 96.00893993 150.81104016 97.92241826 141.90625 99.8984375 C130.03603956 102.53016411 118.14102004 105.01349223 106.21875 107.3984375 C105.44415436 107.55400116 104.66955872 107.70956482 103.87149048 107.86984253 C101.68824496 108.30761165 99.50442795 108.74237557 97.3203125 109.17578125 C96.06814941 109.42448975 94.81598633 109.67319824 93.52587891 109.92944336 C90.59375 110.4609375 90.59375 110.4609375 88.59375 110.4609375 C88.59906608 111.13739838 88.60438217 111.81385926 88.60985935 112.51081896 C88.92384826 152.69441403 89.16371077 192.87784956 89.30866461 233.06242517 C89.32617237 237.89838967 89.34429309 242.7343517 89.36279297 247.5703125 C89.36646531 248.53297624 89.37013766 249.49563997 89.37392129 250.48747534 C89.43467127 266.03011294 89.54495979 281.57201805 89.67388915 297.11422259 C89.80528455 313.08814802 89.88267201 329.06169256 89.91098893 345.03613615 C89.93010228 354.87628225 89.99023239 364.71435737 90.10458054 374.55386513 C90.17917338 381.32144039 90.20082152 388.08796131 90.18276928 394.8559168 C90.17388956 398.74881743 90.18648078 402.63812805 90.26262665 406.53037262 C90.62311098 425.92337666 87.87248184 439.76886129 76.3945725 455.86393452 C73.43108699 460.13763762 70.87228258 464.64285911 68.28125 469.1484375 C67.20977282 470.95841468 66.13819239 472.76833075 65.06640625 474.578125 C62.54208167 478.84758027 60.03101784 483.12466128 57.52734375 487.40625 C57.0016555 488.30517471 57.0016555 488.30517471 56.46534729 489.22225952 C56.1112529 489.82776642 55.75715851 490.43327332 55.39233398 491.05712891 C48.7909261 502.34518863 42.14059055 513.60023119 35.39453125 524.80273438 C30.70733171 532.59016758 26.06445855 540.40298887 21.43286133 548.22354126 C14.57457872 559.80301293 7.65598647 571.34231376 0.65304565 582.83486938 C-4.56659242 591.40258441 -9.71524281 600.00826672 -14.80395508 608.65429688 C-19.7976082 617.13825566 -24.86104284 625.57935876 -29.93554688 634.01513672 C-32.36640797 638.05769423 -34.79239776 642.10317271 -37.21875 646.1484375 C-40.41938438 651.48457368 -43.62156168 656.81976776 -46.828125 662.15234375 C-53.44367953 673.1593741 -60.02690238 684.18441277 -66.57244873 695.2331543 C-72.75513692 705.66864538 -78.96748707 716.08403529 -85.27139282 726.44683838 C-86.33014209 728.18855159 -87.38643507 729.93173235 -88.44213867 731.67529297 C-91.6527069 736.96956412 -94.88919763 742.24237664 -98.203125 747.47265625 C-98.7794165 748.39530273 -99.35570801 749.31794922 -99.94946289 750.26855469 C-101.01171027 751.96751961 -102.08812213 753.65774687 -103.18139648 755.33691406 C-105.81721854 759.3655694 -105.81721854 759.3655694 -106.078125 763.9765625 C-103.61526105 767.63633229 -101.09969888 771.2319936 -98.46875 774.7734375 C-97.27977981 776.39605916 -96.09230441 778.01977708 -94.90625 779.64453125 C-94.31328125 780.45647949 -93.7203125 781.26842773 -93.109375 782.10498047 C-90.67190901 785.47676183 -88.31237748 788.89852952 -85.96875 792.3359375 C-81.88167277 798.32128163 -77.75387279 804.27609658 -73.59375 810.2109375 C-73.004729 811.05124512 -72.41570801 811.89155273 -71.80883789 812.75732422 C-70.60759297 814.47049759 -69.40617604 816.18355036 -68.20458984 817.89648438 C-64.68730002 822.91217977 -61.17597421 827.93205169 -57.66357422 832.95117188 C-54.71132172 837.16938328 -51.75754719 841.3865133 -48.80078125 845.6015625 C-41.61399151 855.85058351 -34.4758306 866.13069319 -27.40625 876.4609375 C-20.60033744 876.14730098 -14.51960521 874.73144905 -8.01171875 872.78125 C-1.66785191 870.92125257 4.74754725 869.32965995 11.15625 867.7109375 C12.3942334 867.39302246 13.6322168 867.07510742 14.90771484 866.74755859 C16.67236084 866.30404053 16.67236084 866.30404053 18.47265625 865.8515625 C20.05929077 865.4498584 20.05929077 865.4498584 21.67797852 865.04003906 C24.4647959 864.48654908 26.76949867 864.1550423 29.59375 864.4609375 C31.68646315 866.45949375 33.37963756 868.3334097 35.15625 870.5859375 C36.20785706 871.86757844 37.25995535 873.14881645 38.3125 874.4296875 C38.85003906 875.09355469 39.38757813 875.75742187 39.94140625 876.44140625 C42.61634323 879.71077367 45.39044146 882.89347241 48.15625 886.0859375 C56.5411442 895.7902135 56.5411442 895.7902135 56.84375 899.6484375 C56.59375 902.4609375 56.59375 902.4609375 55.59375 903.4609375 C54.16739644 903.55932487 52.73619313 903.58832798 51.30645084 903.58957195 C49.91021444 903.59440862 49.91021444 903.59440862 48.48577124 903.599343 C47.45116512 903.5977944 46.41655901 903.5962458 45.3506012 903.59465027 C43.71597354 903.5980486 43.71597354 903.5980486 42.04832309 903.60151559 C38.36627063 903.6078879 34.68425466 903.60702417 31.00219727 903.60620117 C28.37478589 903.60919064 25.74737495 903.61259267 23.1199646 903.61637878 C16.70584647 903.62470167 10.29173752 903.62743436 3.87761445 903.62799116 C-1.33354038 903.62846555 -6.54469216 903.63051639 -11.75584602 903.63369179 C-26.51492818 903.6425028 -41.27400304 903.64711046 -56.03308784 903.64636131 C-56.82952481 903.64632136 -57.62596178 903.6462814 -58.4465332 903.64624023 C-59.24393722 903.64619935 -60.04134125 903.64615847 -60.86290903 903.64611635 C-73.79132648 903.64570975 -86.71971482 903.65528182 -99.64812385 903.6693786 C-112.90773276 903.68372298 -126.16732745 903.69064986 -139.42694432 903.68978482 C-146.87732328 903.68945218 -154.32767174 903.69222847 -161.77804375 903.70296288 C-168.78176421 903.7129887 -175.78541904 903.71275241 -182.78914261 903.70544624 C-185.36678346 903.7043951 -187.94442825 903.70679434 -190.5220623 903.7128067 C-194.02682497 903.72045517 -197.53136024 903.71592958 -201.03611755 903.70817566 C-202.06849295 903.71331922 -203.10086834 903.71846279 -204.16452783 903.72376221 C-205.09795985 903.71916342 -206.03139187 903.71456462 -206.9931097 903.70982647 C-207.80289082 903.71004384 -208.61267193 903.71026121 -209.44699186 903.71048516 C-211.40625 903.4609375 -211.40625 903.4609375 -213.40625 901.4609375 C-213.0881444 897.41779392 -211.55872223 894.7655078 -209.31640625 891.44921875 C-208.69701172 890.52689453 -208.07761719 889.60457031 -207.43945312 888.65429688 C-206.46395508 887.22827148 -206.46395508 887.22827148 -205.46875 885.7734375 C-204.82228516 884.81115234 -204.17582031 883.84886719 -203.50976562 882.85742188 C-198.73026583 875.78495333 -198.73026583 875.78495333 -196.40625 873.4609375 C-194.3125 873.23046875 -194.3125 873.23046875 -191.90625 873.2734375 C-191.1121875 873.27988281 -190.318125 873.28632812 -189.5 873.29296875 C-187.40625 873.4609375 -187.40625 873.4609375 -185.40625 874.4609375 C-183.74196667 874.68104539 -182.07100933 874.85190652 -180.3984375 874.99609375 C-179.41230469 875.08310547 -178.42617188 875.17011719 -177.41015625 875.25976562 C-176.37761719 875.34677734 -175.34507812 875.43378906 -174.28125 875.5234375 C-173.24097656 875.61431641 -172.20070313 875.70519531 -171.12890625 875.79882812 C-168.55497952 876.02316119 -165.98078415 876.24370525 -163.40625 876.4609375 C-170.0014444 868.26380958 -176.84007397 860.30476019 -183.74658203 852.37060547 C-189.95497623 845.22702509 -196.13448972 838.06447878 -202.09375 830.7109375 C-205.64892904 826.32941955 -209.37394537 822.14383069 -213.171875 817.97265625 C-215.40759533 815.45942518 -217.54002682 812.88782271 -219.65625 810.2734375 C-223.26095163 805.82241462 -226.95996446 801.46896343 -230.71875 797.1484375 C-231.26474854 796.52074463 -231.81074707 795.89305176 -232.37329102 795.24633789 C-233.48735808 793.96605065 -234.60153521 792.68585919 -235.71582031 791.40576172 C-238.51777113 788.18214239 -241.30835651 784.94886705 -244.09375 781.7109375 C-244.5988208 781.12658936 -245.1038916 780.54224121 -245.62426758 779.94018555 C-250.12328711 774.70410413 -251.65126515 771.96614927 -251.328125 765.13671875 C-250.79788541 744.60086628 -252.37620954 731.16522366 -265.13696289 714.31982422 C-266.40625 712.4609375 -266.40625 712.4609375 -266.40625 710.4609375 C-276.05690946 717.47561687 -285.6340863 724.53992736 -294.90380859 732.05297852 C-301.33235113 737.24752452 -307.94971361 742.18005897 -314.58398438 747.10742188 C-328.18789121 757.21193145 -341.61982201 767.54141148 -355.046875 777.87890625 C-361.09842714 782.53380665 -367.16813366 787.16505427 -373.234375 791.80078125 C-375.3338404 793.40558844 -377.43267464 795.01121666 -379.53125 796.6171875 C-383.82152262 799.90026293 -388.11353366 803.18105812 -392.40625 806.4609375 C-393.62852295 807.39510498 -393.62852295 807.39510498 -394.87548828 808.34814453 C-397.48914991 810.34507155 -400.10384111 812.34064409 -402.71875 814.3359375 C-403.48670898 814.92286377 -404.25466797 815.50979004 -405.04589844 816.11450195 C-406.73886031 817.40547966 -408.4458729 818.67813874 -410.1628418 819.93701172 C-412.78608783 821.90778641 -415.18673735 824.06191296 -417.61254883 826.27001953 C-431.18379321 838.14049901 -441.84731814 839.48578802 -459.46875 838.5859375 C-461.76093227 838.53626625 -464.05326901 838.49326108 -466.34570312 838.45703125 C-470.49679068 838.35615904 -474.64626278 838.25299264 -478.79321289 838.03955078 C-480.02510094 837.98167892 -480.02510094 837.98167892 -481.28187561 837.92263794 C-483.86546597 837.3611339 -484.83020577 836.55804808 -486.40625 834.4609375 C-486.21664153 830.01937122 -483.97559009 826.28268662 -481.94140625 822.421875 C-481.59264938 821.74802261 -481.24389252 821.07417023 -480.88456726 820.37989807 C-479.7520075 818.19537446 -478.61059046 816.01562235 -477.46875 813.8359375 C-476.68278779 812.32520102 -475.89730802 810.81421346 -475.11230469 809.30297852 C-473.21256793 805.64949631 -471.30563116 801.99983827 -469.39556885 798.35174561 C-468.09731882 795.87050139 -466.80460521 793.38638605 -465.51171875 790.90234375 C-458.95579049 778.34393535 -452.17681169 765.90452055 -445.40625 753.4609375 C-448.00464574 754.32706941 -449.67824404 755.16461497 -451.94140625 756.62109375 C-453.01140869 757.30449829 -453.01140869 757.30449829 -454.10302734 758.00170898 C-454.88371582 758.50387939 -455.6644043 759.0060498 -456.46875 759.5234375 C-464.36175787 764.55555678 -472.30370265 769.5014806 -480.28125 774.3984375 C-481.94498657 775.4203418 -481.94498657 775.4203418 -483.64233398 776.46289062 C-485.8519854 777.82009343 -488.06170111 779.17719157 -490.27148438 780.53417969 C-494.86284963 783.35622444 -499.44849444 786.18743665 -504.03125 789.0234375 C-504.85794189 789.53487305 -505.68463379 790.04630859 -506.53637695 790.57324219 C-511.33382481 793.54531738 -516.12123211 796.53296145 -520.90234375 799.53125 C-521.99530762 800.21630615 -523.08827148 800.9013623 -524.21435547 801.60717773 C-526.34075186 802.94092118 -528.46612324 804.27630057 -530.59033203 805.61352539 C-532.03255127 806.51832642 -532.03255127 806.51832642 -533.50390625 807.44140625 C-534.78019897 808.24421021 -534.78019897 808.24421021 -536.08227539 809.06323242 C-541.85634611 812.53592439 -541.85634611 812.53592439 -545.15625 812.0859375 C-545.89875 811.8796875 -546.64125 811.6734375 -547.40625 811.4609375 C-547.9390012 808.3398196 -547.81128412 806.16899342 -546.22558594 803.39697266 C-544.47283833 800.96792201 -542.64757117 798.61640167 -540.78125 796.2734375 C-539.39361539 794.47987487 -538.00691808 792.68558674 -536.62109375 790.890625 C-535.91452637 789.9840918 -535.20795898 789.07755859 -534.47998047 788.14355469 C-531.36428063 784.1130261 -528.35213788 780.00932873 -525.34375 775.8984375 C-524.18644353 774.32403817 -523.02889111 772.74981961 -521.87109375 771.17578125 C-521.29987793 770.39831543 -520.72866211 769.62084961 -520.14013672 768.81982422 C-517.23253372 764.86414129 -514.31908606 760.91276761 -511.40625 756.9609375 C-510.23955558 755.37762462 -509.0728889 753.79429129 -507.90625 752.2109375 C-486.90625 723.7109375 -486.90625 723.7109375 -485.15527344 721.3347168 C-483.99172866 719.7555507 -482.82831662 718.17628678 -481.66503906 716.59692383 C-478.70170312 712.57400851 -475.73589146 708.55295786 -472.765625 704.53515625 C-467.10438654 696.87251605 -461.47924245 689.19187417 -455.97412109 681.41625977 C-451.62127569 675.30137527 -447.024662 669.37643542 -442.40625 663.4609375 C-445.24939173 664.40865141 -447.16753068 665.48099553 -449.66796875 667.09375 C-450.52712891 667.64482422 -451.38628906 668.19589844 -452.27148438 668.76367188 C-453.20283203 669.36501953 -454.13417969 669.96636719 -455.09375 670.5859375 C-457.0970906 671.87067413 -459.10101713 673.15449747 -461.10546875 674.4375 C-462.14493652 675.10297852 -463.1844043 675.76845703 -464.25537109 676.45410156 C-469.28441273 679.65716388 -474.34497475 682.809149 -479.40625 685.9609375 C-487.09811037 690.75542937 -494.76630587 695.58414319 -502.40625 700.4609375 C-511.03895116 705.97143694 -519.70714384 711.42234649 -528.40795898 716.82470703 C-533.49760586 719.99095291 -538.55451237 723.19619045 -543.56640625 726.484375 C-544.55833984 727.13083984 -545.55027344 727.77730469 -546.57226562 728.44335938 C-548.45148926 729.67125398 -550.32433404 730.90898841 -552.18945312 732.15820312 C-556.98990723 735.28416524 -560.61110635 737.35319247 -566.40625 737.4609375 C-567.40625 736.4609375 -567.40625 736.4609375 -567.8125 733.89453125 C-567.23591414 729.0212719 -564.86260276 726.33348728 -561.90625 722.5234375 C-560.7087195 720.92483622 -559.51351748 719.32448872 -558.3203125 717.72265625 C-557.68383789 716.87364746 -557.04736328 716.02463867 -556.39160156 715.14990234 C-552.92081176 710.44905645 -549.60545879 705.64100953 -546.28125 700.8359375 C-545.59949707 699.85334961 -544.91774414 698.87076172 -544.21533203 697.85839844 C-539.95482223 691.71333374 -535.71515682 685.55412828 -531.48779297 679.38623047 C-527.82777246 674.05399455 -524.12009674 668.75578325 -520.40625 663.4609375 C-514.80232635 655.47062133 -509.24841768 647.44802184 -503.73291016 639.39648438 C-501.46112934 636.08204229 -499.18331415 632.77175096 -496.90625 629.4609375 C-495.98695841 628.12371218 -495.06768754 626.78647262 -494.1484375 625.44921875 C-492.34172532 622.82121547 -490.5343946 620.19363924 -488.7265625 617.56640625 C-480.39293752 605.45386114 -472.07504857 593.33038746 -463.80859375 581.171875 C-457.2886755 571.58558599 -450.72938877 562.03008555 -444.09375 552.5234375 C-439.29049811 545.64110627 -434.53905827 538.7333119 -429.90966797 531.73291016 C-426.61654431 526.75672623 -423.24585643 521.83710552 -419.85766602 516.92529297 C-415.89570094 511.17979118 -411.96041451 505.41641299 -408.03125 499.6484375 C-401.70143795 490.35810044 -395.35864831 481.07675573 -389.0078125 471.80078125 C-387.36912806 469.40670326 -385.73131552 467.01203096 -384.09375 464.6171875 C-378.64146688 456.64414605 -373.18225933 448.67606647 -367.70385742 440.72094727 C-365.08463582 436.91377014 -362.47711515 433.09889637 -359.87890625 429.27734375 C-353.80053777 420.33782022 -347.69775972 411.42132408 -341.46875 402.5859375 C-336.29922351 395.25143328 -331.29410316 387.81989416 -326.34375 380.3359375 C-321.10536398 372.42131047 -315.73593998 364.6407619 -310.13305664 356.98046875 C-304.56009514 349.34821631 -299.25387788 341.54053007 -293.9453125 333.72314453 C-291.56971763 330.23135168 -289.17612441 326.75202363 -286.78125 323.2734375 C-285.87626995 321.95835544 -284.97132177 320.64325146 -284.06640625 319.328125 C-283.62441895 318.68584961 -283.18243164 318.04357422 -282.72705078 317.38183594 C-281.42979442 315.49517918 -280.13450495 313.60718834 -278.83984375 311.71875 C-274.8535728 305.90724968 -270.85834208 300.10265473 -266.82421875 294.32421875 C-257.42242051 280.85713256 -248.15761428 267.30356161 -238.95361328 253.70106506 C-223.33894597 230.62575031 -207.60863205 207.62959137 -191.8046875 184.68359375 C-184.62226637 174.2513471 -177.48525052 163.78841122 -170.35449219 153.32080078 C-165.29943554 145.90038304 -160.24205351 138.48155228 -155.18212891 131.06445312 C-154.03565771 129.38367655 -152.88947772 127.70270129 -151.74365234 126.02148438 C-145.47193499 116.82067873 -139.15437136 107.65432528 -132.78125 98.5234375 C-126.65005871 89.73594537 -120.60260641 80.89473451 -114.59375 72.0234375 C-113.77662554 70.8176987 -112.95948702 69.61196943 -112.14233398 68.40625 C-109.31269517 64.23024584 -106.4832208 60.0541323 -103.65820312 55.875 C-85.35902751 28.83006454 -65.0229634 7.95833063 -31.75390625 1.26824951 C-21.29203238 -0.52125409 -10.57530024 -0.06720452 0 0 Z " fill="#080809" transform="translate(678.40625,59.5390625)"/>
<path d="M0 0 C1.83351995 0.00282245 3.66705119 0.00123406 5.50056458 -0.00442505 C10.46792847 -0.00729078 15.43287062 0.05143612 20.39967227 0.12131453 C25.59388317 0.18389046 30.7881516 0.18970663 35.98268127 0.2015686 C45.81445537 0.23263202 55.64511558 0.31466766 65.47639948 0.4150635 C76.67087069 0.52689486 87.86539553 0.58183409 99.0602864 0.63201785 C122.08450931 0.73650289 145.10774397 0.9123588 168.13110352 1.13525391 C166.93050352 4.15145807 165.70786514 7.14187547 164.36621094 10.09814453 C164.02740906 10.84619354 163.68860718 11.59424255 163.33953857 12.36495972 C162.97555969 13.1657193 162.61158081 13.96647888 162.23657227 14.79150391 C161.85317688 15.63746124 161.46978149 16.48341858 161.07476807 17.35501099 C160.25194387 19.17041006 159.42865626 20.98559914 158.60494995 22.80059814 C156.42887133 27.59591116 154.25658386 32.39294079 152.08422852 37.18994141 C151.65270981 38.14266937 151.2211911 39.09539734 150.77659607 40.07699585 C147.35665685 47.63040591 143.95538465 55.19191962 140.56860352 62.76025391 C135.6295284 73.79249948 130.68551962 84.82250069 125.73049927 95.84759521 C124.92149671 97.64820613 124.11295543 99.44902437 123.30490112 101.25006104 C122.17264498 103.77352972 121.03877946 106.29626947 119.90454102 108.81884766 C119.3991404 109.94659355 119.3991404 109.94659355 118.88352966 111.09712219 C117.97542445 113.11426498 117.05455441 115.12510315 116.13110352 117.13525391 C115.63336426 118.24143066 115.135625 119.34760742 114.62280273 120.48730469 C113.09793482 123.19413241 112.1197921 124.25990665 109.49047852 125.81884766 C108.76119141 126.26381592 108.0319043 126.70878418 107.28051758 127.16723633 C106.48871094 127.63105713 105.6969043 128.09487793 104.88110352 128.57275391 C103.16105683 129.61749705 101.44236664 130.66447591 99.72485352 131.71337891 C98.81606445 132.26445313 97.90727539 132.81552734 96.97094727 133.38330078 C92.03974658 136.42545141 87.21808429 139.63378161 82.38110352 142.82275391 C75.67907004 147.21839295 68.95155393 151.51739068 62.04321289 155.58007812 C53.66873165 160.53961177 45.53261842 165.88599967 37.34594727 171.14697266 C32.0608234 174.54322729 26.75923957 177.91200504 21.44360352 181.26025391 C5.73436661 191.16172205 -9.91407593 201.15820603 -25.55102539 211.17333984 C-33.20952377 216.07714437 -40.87894551 220.96350185 -48.55371094 225.84179688 C-55.56412183 230.29980931 -62.56139893 234.77810492 -69.55639648 239.26025391 C-79.21800701 245.44923848 -88.90361825 251.59846379 -98.61254883 257.71289062 C-100.88313098 259.14422709 -103.15171688 260.57867434 -105.41967773 262.01416016 C-113.22587985 266.95373854 -121.04427121 271.87245631 -128.88378906 276.7590332 C-137.42531126 282.08348785 -145.9370599 287.44211419 -154.36865234 292.93896484 C-161.40522539 297.51219289 -168.53120837 301.94025967 -175.65405273 306.37744141 C-182.41625922 310.59317467 -189.1524844 314.84698031 -195.86889648 319.13525391 C-204.57928423 324.69489175 -213.32985261 330.18748645 -222.09692383 335.65722656 C-236.08389229 344.38511313 -250.02044056 353.18910619 -263.86889648 362.13525391 C-263.86889648 358.6197154 -263.20014017 357.82885081 -261.19311523 355.02978516 C-260.33073242 353.81452148 -260.33073242 353.81452148 -259.45092773 352.57470703 C-258.82573242 351.7078125 -258.20053711 350.84091797 -257.55639648 349.94775391 C-256.25762359 348.12135453 -254.95945286 346.29452681 -253.66186523 344.46728516 C-253.01523926 343.56059082 -252.36861328 342.65389648 -251.70239258 341.71972656 C-249.21833555 338.21823152 -246.78901121 334.68109905 -244.36889648 331.13525391 C-240.28428501 325.1691035 -236.14814378 319.24059676 -231.99389648 313.32275391 C-226.9072291 306.07414925 -221.8788522 298.78879953 -216.89135742 291.47167969 C-212.71519248 285.35238593 -208.48536244 279.27191337 -204.24389648 273.19775391 C-198.11251821 264.41041793 -192.06453867 255.56951807 -186.05639648 246.69775391 C-185.64785431 246.09453308 -185.23931213 245.49131226 -184.81838989 244.86981201 C-183.22720565 242.52022912 -181.63608838 240.1706009 -180.04508972 237.82089233 C-174.09297586 229.03322835 -168.07405148 220.29334162 -162.00170898 211.58837891 C-152.71477797 198.28191215 -152.71477797 198.28191215 -143.65014648 184.82397461 C-138.16679154 176.53919346 -132.53125513 168.35719332 -126.92797852 160.15332031 C-123.3595425 154.92294255 -119.80241959 149.68487851 -116.24389648 144.44775391 C-106.87828976 130.66921102 -97.47561608 116.91648697 -88.03149414 103.19165039 C-84.4685408 98.01215999 -80.91745663 92.82461331 -77.36889648 87.63525391 C-62.53303045 65.94622807 -62.53303045 65.94622807 -56.29467773 57.01025391 C-47.9128169 45.00240092 -39.62524377 32.93624959 -31.42749023 20.80224609 C-31.04311295 20.23381485 -30.65873566 19.66538361 -30.26271057 19.07972717 C-29.2256134 17.54563298 -28.18966333 16.01076347 -27.15380859 14.47583008 C-26.78780296 13.96970971 -26.42179733 13.46358934 -26.04470062 12.942132 C-24.77067635 11.08255701 -24.77067635 11.08255701 -23.74271393 8.66143703 C-18.4325815 -1.44435693 -10.07538003 -0.21656068 0 0 Z " fill="#FCFDFC" transform="translate(395.868896484375,415.86474609375)"/>
<path d="M0 0 C58.74 0 117.48 0 178 0 C172.37626113 5.62373887 172.37626113 5.62373887 169.53125 7.76953125 C168.88857178 8.25752197 168.24589355 8.7455127 167.58374023 9.24829102 C166.89610596 9.76447998 166.20847168 10.28066895 165.5 10.8125 C163.98042834 11.96348831 162.46089905 13.11453258 160.94140625 14.265625 C160.13977051 14.87083984 159.33813477 15.47605469 158.51220703 16.09960938 C155.92845484 18.05412124 153.35192146 20.01779629 150.77734375 21.984375 C142.17597294 28.55437335 133.55443506 35.09409924 124.87988281 41.56713867 C119.93140431 45.27225262 115.05464299 49.06392033 110.1875 52.875 C103.25515713 58.30109106 96.2133543 63.55523744 89.10620117 68.74951172 C83.6624624 72.74088169 78.31055471 76.83340016 73 81 C66.91076998 85.77753949 60.74876798 90.43312672 54.5 95 C47.32356011 100.24553939 40.27091958 105.62782436 33.27075195 111.10595703 C28.35393087 114.95296191 23.393803 118.73181199 18.38671875 122.4609375 C13.73099062 125.93849924 9.11957867 129.47467015 4.5 133 C-1.88583178 137.87191804 -8.28423602 142.7238545 -14.71875 147.53125 C-19.33387224 150.99259168 -23.91347025 154.50093198 -28.5 158 C-33.98617592 162.18540897 -39.47202786 166.36990587 -45 170.5 C-50.44451005 174.5678268 -55.8468936 178.68988472 -61.25 182.8125 C-63.96209785 184.8791952 -66.67469073 186.94523743 -69.38769531 189.01074219 C-71.08034073 190.29968376 -72.77243339 191.58935168 -74.46386719 192.87988281 C-76.68113968 194.56989402 -78.90239298 196.25451384 -81.125 197.9375 C-81.78145508 198.43934814 -82.43791016 198.94119629 -83.11425781 199.45825195 C-85.73094524 201.43262984 -87.86695517 202.95565172 -91 204 C-89.09230207 197.91861697 -86.84698339 192.12721979 -84.18359375 186.33984375 C-83.6309938 185.12417221 -83.6309938 185.12417221 -83.06723022 183.88394165 C-81.86137045 181.23326164 -80.64939689 178.58542451 -79.4375 175.9375 C-78.14897464 173.10880669 -76.86202799 170.27939818 -75.57505798 167.44999695 C-74.69283887 165.51087674 -73.8100722 163.57200556 -72.92677307 161.63337708 C-68.89616281 152.78516856 -64.9084075 143.91801654 -60.92770386 135.04727173 C-54.96283902 121.75703119 -48.94970726 108.49037779 -42.875 95.25 C-37.5669249 83.67962942 -32.34675309 72.07533757 -27.1875 60.4375 C-18.22211002 40.24826303 -9.10493198 20.12669174 0 0 Z " fill="#FCFCFB" transform="translate(515,545)"/>
<path d="M0 0 C0.99 0.495 0.99 0.495 2 1 C1.46375 2.09828125 0.9275 3.1965625 0.375 4.328125 C-5.17033667 15.78533186 -10.42019114 27.35817648 -15.5625 39 C-21.10563262 51.5487791 -26.74584676 64.04656532 -32.5 76.5 C-38.62756493 89.76228512 -44.61834595 103.07896079 -50.52377319 116.44155884 C-54.5141363 125.46695164 -58.56607991 134.44675973 -62.84838867 143.33837891 C-65.80217974 149.50165188 -68.56813464 155.7410142 -71.3125 162 C-71.76963379 163.03713135 -72.22676758 164.0742627 -72.69775391 165.14282227 C-74.94005976 170.24319067 -77.15619305 175.35171337 -79.30567932 180.49200439 C-80.08172021 182.3415116 -80.86680167 184.18690701 -81.6550293 186.03125 C-82.65025985 188.36513462 -83.62928167 190.70602228 -84.58911133 193.0546875 C-87.61983641 200.09996665 -90.77812566 204.51529395 -97 209 C-97.92683594 209.72445312 -98.85367188 210.44890625 -99.80859375 211.1953125 C-100.67613281 211.83210937 -101.54367187 212.46890625 -102.4375 213.125 C-108.32479874 217.48429754 -114.14465366 221.92587149 -119.94897461 226.39501953 C-120.6322583 226.91950684 -121.31554199 227.44399414 -122.01953125 227.984375 C-122.61870361 228.44553711 -123.21787598 228.90669922 -123.83520508 229.38183594 C-124.5495874 229.91583008 -125.26396973 230.44982422 -126 231 C-126.97688782 231.84666733 -127.95377563 232.69333466 -128.96026611 233.56565857 C-133.68423018 236.90834249 -138.17980743 236.66927072 -143.80053711 236.56762695 C-145.39677917 236.56872215 -145.39677917 236.56872215 -147.02526855 236.56983948 C-150.52648711 236.56636891 -154.02635891 236.5275304 -157.52734375 236.48828125 C-159.96113865 236.4789513 -162.39494295 236.47183605 -164.82875061 236.46684265 C-171.22240298 236.44778753 -177.61548393 236.39869827 -184.00891113 236.34332275 C-190.53776317 236.29209897 -197.06670789 236.26932184 -203.59570312 236.24414062 C-216.39737865 236.19057915 -229.19865888 236.10624974 -242 236 C-241.0447519 234.87949365 -240.08864265 233.75972142 -239.13217163 232.64025879 C-238.59983099 232.01660683 -238.06749035 231.39295486 -237.51901817 230.75040436 C-235.74335396 228.70426005 -233.89038939 226.76100406 -231.9765625 224.84375 C-231.265 224.13089844 -230.5534375 223.41804687 -229.8203125 222.68359375 C-229.09585937 221.96300781 -228.37140625 221.24242187 -227.625 220.5 C-226.90828125 219.77941406 -226.1915625 219.05882812 -225.453125 218.31640625 C-222.09856426 214.96790068 -218.71694901 211.7094694 -215.1171875 208.625 C-209.97349177 204.19187145 -205.26450667 199.33286401 -200.5 194.5 C-195.1559249 189.07925237 -189.81934589 183.76647975 -184.03710938 178.81445312 C-179.83692794 175.07335193 -175.94571106 171.00549456 -172 167 C-166.81820006 161.73968794 -161.62939118 156.60749253 -156.0234375 151.80078125 C-152.00186948 148.22174099 -148.27483014 144.33542131 -144.5 140.5 C-135.54591103 131.40218568 -135.54591103 131.40218568 -131.0625 127.5625 C-125.93069899 123.15723513 -121.2452971 118.31337884 -116.5 113.5 C-106.48199618 103.33826585 -106.48199618 103.33826585 -102.09375 99.59375 C-96.41446539 94.72989352 -91.24934448 89.31739154 -86 84 C-74.43006282 72.28008216 -74.43006282 72.28008216 -70.03125 68.53125 C-64.18871846 63.54578403 -58.89352686 57.96036903 -53.5 52.5 C-51.32597227 50.29902946 -49.14840934 48.10164212 -46.96875 45.90625 C-46.48829224 45.4174939 -46.00783447 44.92873779 -45.51281738 44.4251709 C-42.81070869 41.70423538 -40.03040369 39.13060169 -37.12695312 36.62475586 C-32.89752999 32.9603296 -28.94070279 29.06824554 -25 25.09765625 C-24.2788501 24.3750914 -23.5577002 23.65252655 -22.81469727 22.9080658 C-20.54074585 20.62857396 -18.27032046 18.3456076 -16 16.0625 C-14.44684765 14.50432494 -12.89346433 12.94638007 -11.33984375 11.38867188 C-7.55722414 7.59510241 -3.7774831 3.79868385 0 0 Z " fill="#FDFDFC" transform="translate(499,558)"/>
<path d="M0 0 C0.18551956 11.87414562 0.32758788 23.74794543 0.41449738 35.62324619 C0.45621445 41.13777996 0.51277941 46.65132087 0.60351562 52.1652832 C0.69056544 57.48865928 0.73830032 62.81108169 0.75901794 68.13511467 C0.77377779 70.16418406 0.80260204 72.19320236 0.84584045 74.2218647 C1.17118364 90.12151641 1.17118364 90.12151641 -1.70774841 94.73908997 C-3.73514768 96.54163034 -5.60399481 97.75127007 -8 99 C-9.21651873 99.93760756 -10.41880799 100.89435431 -11.59765625 101.87890625 C-12.75165988 102.77465536 -13.90660993 103.66918651 -15.0625 104.5625 C-16.27385219 105.51509791 -17.48479423 106.46821761 -18.6953125 107.421875 C-20.60824024 108.92403809 -22.53035361 110.38903681 -24.4921875 111.828125 C-26.64808442 113.3927741 -26.64808442 113.3927741 -29 116 C-28.91792775 121.34215741 -26.75973736 124.06952022 -23.25 127.9375 C-22.38890625 128.91589844 -21.5278125 129.89429688 -20.640625 130.90234375 C-18.21573733 133.28660792 -18.21573733 133.28660792 -15.34765625 132.9453125 C-12.42069793 131.76673694 -10.35127752 130.08256009 -8 128 C-4.52100842 129.39159663 -3.51947499 130.63251488 -2 134 C-2.83660156 134.65484375 -3.67320312 135.3096875 -4.53515625 135.984375 C-10.88196844 140.95850455 -17.209613 145.95465419 -23.5 151 C-31.75884601 157.62223653 -40.08287785 164.15989519 -48.42578125 170.67578125 C-55.35055151 176.09119333 -62.20344333 181.58590279 -69.0144043 187.14379883 C-74.62784531 191.71697961 -80.30585643 196.20309813 -86.01171875 200.66015625 C-88.94491802 202.89098017 -88.94491802 202.89098017 -91.2898407 205.11785889 C-94.5940701 207.41256754 -96.36058081 207.48608753 -100.35083008 207.45410156 C-102.24222466 207.45364838 -102.24222466 207.45364838 -104.17182922 207.45318604 C-105.5377364 207.43276265 -106.90363705 207.41189872 -108.26953125 207.390625 C-109.67485243 207.38315885 -111.08018407 207.37746768 -112.48551941 207.37347412 C-116.17321836 207.35824686 -119.86028091 207.31899146 -123.54772949 207.2746582 C-127.31493522 207.2336419 -131.08224442 207.21544962 -134.84960938 207.1953125 C-142.23336214 207.15249324 -149.61659169 207.08427861 -157 207 C-154.84983033 203.18654576 -152.71207739 199.43239562 -150.22265625 195.828125 C-149.71621582 195.09166748 -149.20977539 194.35520996 -148.68798828 193.59643555 C-148.15157715 192.82211182 -147.61516602 192.04778809 -147.0625 191.25 C-145.89446703 189.55342963 -144.72650008 187.8568138 -143.55859375 186.16015625 C-142.66889893 184.87069092 -142.66889893 184.87069092 -141.76123047 183.55517578 C-139.03920315 179.60608542 -136.33210188 175.64682975 -133.625 171.6875 C-132.82944702 170.52492676 -132.82944702 170.52492676 -132.01782227 169.33886719 C-127.83845585 163.23051442 -123.6682762 157.11592431 -119.5 151 C-109.91467589 136.93652844 -100.30857212 122.8874601 -90.66015625 108.8671875 C-88.91572511 106.33226131 -87.17356787 103.79579992 -85.43359375 101.2578125 C-84.560011 99.98429599 -83.68631111 98.71085983 -82.8125 97.4375 C-82.367854 96.78950439 -81.92320801 96.14150879 -81.46508789 95.47387695 C-78.76420975 91.54502776 -76.04549505 87.62923979 -73.3125 83.72265625 C-66.37370622 73.79966589 -59.51220633 63.83634441 -52.8125 53.75 C-51.81585327 52.25388184 -51.81585327 52.25388184 -50.79907227 50.72753906 C-47.69044624 46.05904958 -44.59555588 41.38264767 -41.52734375 36.6875 C-33.57870916 24.63339798 -16.80516912 0 0 0 Z " fill="#FDFDFD" transform="translate(628,76)"/>
<path d="M0 0 C0.33 0.66 0.66 1.32 1 2 C-0.13340779 4.16662483 -1.3225511 6.18652717 -2.625 8.25 C-3.47237148 9.62697865 -4.3186631 11.00462221 -5.1640625 12.3828125 C-5.85483887 13.50284668 -5.85483887 13.50284668 -6.55957031 14.64550781 C-9.08723002 18.77716038 -11.54080934 22.9523578 -14 27.125 C-14.54317871 28.0442627 -15.08635742 28.96352539 -15.64599609 29.91064453 C-18.78320323 35.22395943 -21.90578728 40.54562615 -25.015625 45.875 C-32.42320962 58.56382971 -39.90378515 71.19836629 -47.56140137 83.73809814 C-52.97231658 92.60286176 -58.26959524 101.5276501 -63.5 110.5 C-69.37477628 120.57597731 -75.35208573 130.58153704 -81.42773438 140.53759766 C-87.19037915 149.98311569 -92.86515137 159.47773606 -98.5 169 C-104.78023027 179.61143998 -111.122927 190.18099555 -117.54199219 200.70898438 C-123.6743345 210.77084444 -129.70229052 220.89212778 -135.70297241 231.03295898 C-141.34272515 240.56138039 -147.04588124 250.04786377 -152.8125 259.5 C-159.32553991 270.17633037 -165.68353061 280.9346475 -171.94921875 291.7578125 C-172.73280762 293.05501221 -172.73280762 293.05501221 -173.53222656 294.37841797 C-175.06820151 296.98344174 -175.06820151 296.98344174 -176.13183594 299.87548828 C-177.46755754 302.93296259 -178.47296512 304.8028007 -181 307 C-186.66957089 308.24506091 -192.11237912 307.94595303 -197.875 307.625 C-199.43735818 307.57479985 -200.99987065 307.52917921 -202.5625 307.48828125 C-206.37882448 307.37844297 -210.18771642 307.20618941 -214 307 C-214.18623207 298.95876535 -214.32793843 290.91844699 -214.41449738 282.87558174 C-214.45606499 279.13990675 -214.51233982 275.40571808 -214.60351562 271.67089844 C-214.69112327 268.05919924 -214.73841235 264.44891939 -214.75901794 260.83623886 C-214.77368038 259.46548003 -214.80231315 258.09478973 -214.84584045 256.72464371 C-215.11655278 247.84127724 -214.14396012 242.60842195 -208.00291443 236.00398254 C-207.34195267 235.3426683 -206.68099091 234.68135406 -206 234 C-205.03170484 232.86498235 -204.07323619 231.72143939 -203.12890625 230.56640625 C-202.28199219 229.57511719 -201.43507813 228.58382812 -200.5625 227.5625 C-197.18517376 223.59669583 -193.84572188 219.60704869 -190.5625 215.5625 C-186.60491812 210.69870975 -182.53457554 205.94118769 -178.44165039 201.19165039 C-175.41054711 197.66701081 -172.43014684 194.10960118 -169.5 190.5 C-165.5662143 185.65403211 -161.51552241 180.91901472 -157.44140625 176.19140625 C-154.41041716 172.66682097 -151.43007419 169.10951168 -148.5 165.5 C-145.06791987 161.2720752 -141.55448829 157.1247211 -138 153 C-133.67827137 147.98408311 -129.44520804 142.90824701 -125.26953125 137.76953125 C-120.45311061 131.89200589 -115.505057 126.12388086 -110.58398438 120.33398438 C-105.09426886 113.87236901 -99.65485392 107.37901078 -94.3046875 100.80078125 C-91.7796708 97.73224401 -89.20522195 94.70954078 -86.625 91.6875 C-82.75470582 87.15091874 -79.02870961 82.52494045 -75.375 77.8125 C-71.50205016 72.82188071 -67.4587078 68.07788339 -63.1796875 63.42578125 C-60.86407108 60.84872426 -58.67794934 58.19417609 -56.5 55.5 C-52.8398166 50.97897207 -49.03548766 46.63071965 -45.11328125 42.3359375 C-43.21557683 40.2382901 -41.3865007 38.09896218 -39.5625 35.9375 C-35.43220248 31.19530655 -30.73433143 27.12466395 -26 23 C-25.36449219 22.43796875 -24.72898437 21.8759375 -24.07421875 21.296875 C-20.91930849 18.51352805 -17.73241967 15.7689679 -14.53125 13.0390625 C-13.59877441 12.24302612 -13.59877441 12.24302612 -12.64746094 11.4309082 C-11.40730383 10.37313653 -10.16582146 9.31691615 -8.92285156 8.26245117 C-5.82078016 5.617559 -2.83305708 2.93824484 0 0 Z " fill="#FBFCFB" transform="translate(746,510)"/>
<path d="M0 0 C2.77593338 1.59669967 4.63871957 3.30707691 6.83203125 5.63671875 C10.18791565 9.17869656 13.70973963 12.39191525 17.39379883 15.58178711 C20.91653302 18.67646884 24.30596186 21.90963733 27.70703125 25.13671875 C38.19101134 35.04239896 48.76591015 44.83650101 59.51953125 54.44921875 C58.74578293 58.49218182 56.9586324 62.08594957 55.23828125 65.79296875 C54.9084877 66.51102692 54.57869415 67.22908508 54.23890686 67.96890259 C53.16889659 70.29712228 52.09425181 72.62317013 51.01953125 74.94921875 C49.55860721 78.12310579 48.09973923 81.29793689 46.640625 84.47265625 C46.28242172 85.2510788 45.92421844 86.02950134 45.55516052 86.83151245 C42.31721796 93.87311309 39.13544366 100.93926807 35.99609375 108.02539062 C33.62494952 113.34380048 33.62494952 113.34380048 32.51953125 114.44921875 C30.22863031 114.54632389 27.93466584 114.57108462 25.64170837 114.56947327 C24.55011826 114.5707549 24.55011826 114.5707549 23.43647581 114.57206243 C20.97968012 114.57371939 18.52295159 114.56819237 16.06616211 114.56274414 C14.31234234 114.56246229 12.55852246 114.56261996 10.80470276 114.56318665 C6.02804456 114.5634747 1.25141125 114.5575767 -3.52524114 114.55061269 C-8.51140929 114.54438046 -13.49757795 114.54377546 -18.48374939 114.54258728 C-27.93270169 114.53947357 -37.38164249 114.53125966 -46.83058971 114.52123779 C-57.58494119 114.51007787 -68.33929321 114.50456651 -79.09364903 114.49954236 C-101.22259537 114.48907708 -123.35153134 114.47147688 -145.48046875 114.44921875 C-141.89898784 110.81444087 -138.21314747 107.55111932 -134.16796875 104.44921875 C-128.94048028 100.39536155 -123.78356729 96.26825262 -118.66796875 92.07421875 C-113.20792949 87.60709431 -107.66839037 83.2684105 -102.04296875 79.01171875 C-95.5079001 74.0654135 -89.16111389 68.93188379 -82.86450195 63.68652344 C-77.91390696 59.5809015 -72.86197393 55.63818921 -67.73046875 51.76171875 C-62.07588432 47.4885098 -56.58876972 43.08791456 -51.21508789 38.4675293 C-46.88447024 34.75489812 -42.43015571 31.2249144 -37.92993164 27.72094727 C-33.31729908 24.12356578 -28.76469722 20.45734153 -24.23046875 16.76171875 C-23.5562085 16.21225586 -22.88194824 15.66279297 -22.18725586 15.09667969 C-21.53120361 14.56204102 -20.87515137 14.02740234 -20.19921875 13.4765625 C-15.65104257 9.77016943 -11.09149192 6.07727186 -6.48046875 2.44921875 C-5.8359375 1.84335937 -5.19140625 1.2375 -4.52734375 0.61328125 C-2.48046875 -0.55078125 -2.48046875 -0.55078125 0 0 Z " fill="#FDFDFD" transform="translate(534.48046875,294.55078125)"/>
<path d="M0 0 C0.33 0.66 0.66 1.32 1 2 C0.34 2 -0.32 2 -1 2 C-1.27384521 2.59224365 -1.54769043 3.1844873 -1.82983398 3.79467773 C-2.95817714 5.92117965 -4.13079694 7.49105363 -5.72265625 9.28515625 C-6.52364746 10.1963623 -6.52364746 10.1963623 -7.34082031 11.12597656 C-7.90897461 11.7650293 -8.47712891 12.40408203 -9.0625 13.0625 C-10.24725089 14.41174523 -11.43083944 15.76201195 -12.61328125 17.11328125 C-13.48267334 18.10642334 -13.48267334 18.10642334 -14.36962891 19.11962891 C-18.0174792 23.3268381 -21.50204584 27.66826906 -25 32 C-30.41955159 38.6924004 -35.93682911 45.28478602 -41.55786133 51.80786133 C-44.58919296 55.33260953 -47.56970786 58.89021983 -50.5 62.5 C-54.4337857 67.34596789 -58.48447759 72.08098528 -62.55859375 76.80859375 C-65.58958284 80.33317903 -68.56992581 83.89048832 -71.5 87.5 C-75.4337857 92.34596789 -79.48447759 97.08098528 -83.55859375 101.80859375 C-86.58958284 105.33317903 -89.56992581 108.89048832 -92.5 112.5 C-96.4337857 117.34596789 -100.48447759 122.08098528 -104.55859375 126.80859375 C-107.58958284 130.33317903 -110.56992581 133.89048832 -113.5 137.5 C-116.93208013 141.7279248 -120.44551171 145.8752789 -124 150 C-128.32172863 155.01591689 -132.55479196 160.09175299 -136.73046875 165.23046875 C-141.54688939 171.10799411 -146.494943 176.87611914 -151.41601562 182.66601562 C-156.90151679 189.12267053 -162.33608687 195.61161302 -167.68359375 202.18359375 C-170.27787266 205.33785192 -172.91606265 208.4520298 -175.5625 211.5625 C-179.42582848 216.10509502 -183.18752325 220.71193534 -186.890625 225.38671875 C-189.91083581 229.12842437 -193.02395848 232.78911519 -196.14453125 236.44726562 C-198.14371661 238.79324845 -200.02984584 241.04713458 -201.68164062 243.65576172 C-204 246 -204 246 -207.48339844 246.56762695 C-208.85897802 246.5668403 -210.23472587 246.53887353 -211.609375 246.48828125 C-212.69958954 246.47766914 -212.69958954 246.47766914 -213.81182861 246.46684265 C-216.12561457 246.4389273 -218.43694998 246.37620383 -220.75 246.3125 C-222.32157954 246.28741299 -223.89319716 246.26460051 -225.46484375 246.24414062 C-229.3108352 246.18911132 -233.15500265 246.10286666 -237 246 C-236.90976562 244.6903125 -236.81953125 243.380625 -236.7265625 242.03125 C-236.22442735 225.98520917 -241.55072915 215.56466663 -250.39013672 202.42163086 C-255 195.48726115 -255 195.48726115 -255 193 C-253.47802734 191.66235352 -253.47802734 191.66235352 -251.3359375 190.12890625 C-250.55105957 189.56059082 -249.76618164 188.99227539 -248.95751953 188.40673828 C-248.10528809 187.79813965 -247.25305664 187.18954102 -246.375 186.5625 C-244.6081171 185.28168139 -242.84249913 183.99911608 -241.078125 182.71484375 C-240.20607422 182.08046387 -239.33402344 181.44608398 -238.43554688 180.79248047 C-235.27814132 178.46873632 -232.19114744 176.06724658 -229.125 173.625 C-215.95985112 163.17497982 -202.5227877 153.08136821 -188.9609375 143.15356445 C-182.73626857 138.58069678 -176.63238148 133.86590698 -170.55126953 129.10449219 C-165.80276524 125.3900789 -161.0192005 121.73047348 -156.1875 118.125 C-150.03593008 113.53443718 -143.9156617 108.90475425 -137.8125 104.25 C-136.92788086 103.57541748 -136.04326172 102.90083496 -135.13183594 102.20581055 C-131.53275414 99.46032377 -127.93455555 96.71368241 -124.33691406 93.96630859 C-114.10028602 86.14976322 -103.84151798 78.36584268 -93.52807617 70.65087891 C-86.51532197 65.3997661 -79.54612495 60.09279826 -72.58300781 54.77612305 C-67.32390457 50.76303633 -62.0485332 46.7733599 -56.75 42.8125 C-51.41378843 38.8222271 -46.10261994 34.80119285 -40.8125 30.75 C-40.12172363 30.22100098 -39.43094727 29.69200195 -38.71923828 29.14697266 C-37.26508696 28.03310532 -35.81098702 26.91917091 -34.35693359 25.80517578 C-9.42993049 6.71358049 -9.42993049 6.71358049 0 0 Z " fill="#FCFCFC" transform="translate(673,571)"/>
<path d="M0 0 C32.34 0 64.68 0 98 0 C98 59.07 98 118.14 98 179 C94.86114266 175.86114266 92.2954926 173.26826088 89.72265625 169.8046875 C88.84009155 168.62241577 88.84009155 168.62241577 87.93969727 167.41625977 C87.32022217 166.57764404 86.70074707 165.73902832 86.0625 164.875 C85.40499756 163.99191162 84.74749512 163.10882324 84.07006836 162.19897461 C79.13296453 155.55921733 74.23754851 148.88871198 69.34204102 142.21826172 C64.9592773 136.26211956 60.49363314 130.3728084 56 124.5 C49.13201927 115.52209119 42.39350375 106.45664455 35.71337891 97.33837891 C32.83461365 93.40950835 29.94965525 89.48520806 27.0625 85.5625 C26.20966431 84.40355225 26.20966431 84.40355225 25.33959961 83.22119141 C20.28885014 76.369086 15.18431868 69.55783188 10.06079102 62.76000977 C9.47225342 61.97811279 8.88371582 61.19621582 8.27734375 60.390625 C7.76421631 59.71032227 7.25108887 59.03001953 6.72241211 58.32910156 C-8.75697173 37.39737628 0 46.21869449 0 0 Z " fill="#FBFBFB" transform="translate(603,298)"/>
<path d="M0 0 C4.38181369 1.58579924 6.86942347 5.02618857 9.75 8.5 C10.2756958 9.12495361 10.8013916 9.74990723 11.34301758 10.39379883 C12.90368465 12.25577691 14.45330808 14.12640634 16 16 C16.83402344 17.00417969 17.66804687 18.00835937 18.52734375 19.04296875 C23.85514257 25.5654277 23.85514257 25.5654277 25 29 C21.37 29.99 17.74 30.98 14 32 C13.67 87.44 13.34 142.88 13 200 C9.89694237 198.44847118 7.91755447 197.25773156 5.34765625 195.09375 C4.66050537 194.52003662 3.97335449 193.94632324 3.26538086 193.35522461 C2.53843018 192.74300049 1.81147949 192.13077637 1.0625 191.5 C-4.07804873 187.2155724 -9.23609376 182.98903958 -14.5625 178.9375 C-15.51797729 178.18309128 -16.47345459 177.42868256 -17.45788574 176.65141296 C-19.90628874 174.75662798 -22.41346737 173.12031346 -25.06604004 171.52619934 C-30.35313858 168.13746963 -35.69094154 164.60710286 -37.90887451 158.49560165 C-39.32442249 151.31362358 -38.9849187 144.04193651 -38.78125 136.76171875 C-38.77383373 134.42618462 -38.77350088 132.09061829 -38.77990723 129.75508118 C-38.77784165 123.64567078 -38.68039003 117.54146949 -38.56219482 111.43334961 C-38.45846048 105.18567111 -38.44610785 98.93786117 -38.42578125 92.68945312 C-38.37266331 80.45781196 -38.21864522 68.22972484 -38 56 C-40.37375476 54.81312262 -41.81457531 54.87552757 -44.4621582 54.87402344 C-45.38684402 54.87021667 -46.31152985 54.86640991 -47.26423645 54.86248779 C-48.26629623 54.86146057 -49.26835602 54.86043335 -50.30078125 54.859375 C-52.41342224 54.84104729 -54.52605275 54.82147701 -56.63867188 54.80078125 C-59.97666069 54.77180011 -63.31397676 54.74999978 -66.65209961 54.74951172 C-69.86893723 54.74617895 -73.0842143 54.71163669 -76.30078125 54.671875 C-77.29676834 54.6789447 -78.29275543 54.6860144 -79.31892395 54.69329834 C-84.00837452 54.61089202 -86.31914628 54.48295087 -90.23120117 51.70800781 C-92 49 -92 49 -91.99291992 46.86547852 C-90.90328876 44.81830081 -89.87858544 43.65188032 -88.11328125 42.15234375 C-87.51177246 41.63526855 -86.91026367 41.11819336 -86.29052734 40.58544922 C-85.31140381 39.76971436 -85.31140381 39.76971436 -84.3125 38.9375 C-83.63912598 38.36531738 -82.96575195 37.79313477 -82.27197266 37.20361328 C-77.32675057 33.03075695 -72.27301449 29.00459985 -67.15625 25.04492188 C-62.37850874 21.33917951 -57.75596474 17.47061576 -53.17333984 13.52685547 C-50.84350139 11.52740611 -48.55972718 9.70648479 -46 8 C-44.1015625 8.27734375 -44.1015625 8.27734375 -42 9 C-30.35178517 12.94404467 -21.4342934 13.15171461 -10 8 C-6.28320679 5.69464725 -3.08726479 3.08726479 0 0 Z " fill="#FCFCFC" transform="translate(746,132)"/>
<path d="M0 0 C4.96949292 4.20101463 9.77133895 8.53083145 14.5 13 C15.90873129 14.32565142 17.31758853 15.65116901 18.7265625 16.9765625 C19.43586914 17.64461914 20.14517578 18.31267578 20.87597656 19.00097656 C24.20292842 22.1321354 27.53708328 25.25553557 30.875 28.375 C31.49632812 28.95580322 32.11765625 29.53660645 32.7578125 30.13500977 C37.07787257 34.16371963 41.46060521 38.11685217 45.8671875 42.05078125 C48.42931035 44.39235506 50.85834461 46.84394733 53.2890625 49.3203125 C55.76590831 51.75191912 58.40253749 53.98526307 61.03125 56.25 C63.50610663 58.44987256 65.80697648 60.7936491 68.125 63.15625 C69.93335089 64.93446171 71.79602528 66.5968897 73.71875 68.25 C77.91313946 71.89746264 81.96668874 75.67610608 86 79.5 C87.48808935 80.90645306 88.97637559 82.31269784 90.46484375 83.71875 C91.21491699 84.42773438 91.96499023 85.13671875 92.73779297 85.8671875 C95.64848347 88.61139128 98.57258234 91.34105709 101.49682617 94.07080078 C107.43460879 99.61628692 113.31399826 105.19471151 119 111 C121.475 113.475 121.475 113.475 124 116 C65.92 116 7.84 116 -52 116 C-46.30723676 102.71688578 -40.57807315 89.47676829 -34.625 76.3125 C-33.85695228 74.61033518 -33.08905245 72.90810363 -32.32128906 71.20581055 C-30.30178163 66.72971835 -28.2796336 62.25482434 -26.25671387 57.78027344 C-24.97687156 54.94883211 -23.69779689 52.11704518 -22.41894531 49.28515625 C-19.86376381 43.62709155 -17.30724064 37.96963431 -14.75 32.3125 C-14.35226379 31.43244293 -13.95452759 30.55238586 -13.54473877 29.6456604 C-9.06927339 19.74526522 -4.57465263 9.85506434 0 0 Z " fill="#FCFCFC" transform="translate(571,421)"/>
<path d="M0 0 C2.96003018 1.48001509 4.85211918 2.54599133 7.29296875 4.58203125 C7.91453857 5.09523926 8.5361084 5.60844727 9.17651367 6.13720703 C9.84013916 6.69005371 10.50376465 7.24290039 11.1875 7.8125 C17.55192139 13.05689471 24.01371914 18.13808015 30.6237793 23.06958008 C31.93670692 24.05875411 33.22583634 25.08023599 34.49043274 26.13049316 C37.01531787 28.12709726 37.01531787 28.12709726 40.23132324 29.60673523 C44.50674136 31.99020181 47.67487631 34.62906142 50 39 C52.31897214 48.67881836 51.5558113 59.10255573 51.31812119 68.99119353 C51.23636275 72.9693718 51.22918017 76.94770119 51.21379089 80.92658997 C51.17352493 88.44622417 51.06704899 95.9633755 50.93624753 103.48192054 C50.79049295 112.04756111 50.71935408 120.61332589 50.65420687 129.17989957 C50.51864059 146.78828973 50.28043048 164.39328001 50 182 C33.5 182 17 182 0 182 C0 121.94 0 61.88 0 0 Z " fill="#FCFCFC" transform="translate(709,304)"/>
<path d="M0 0 C2.57169015 2.49039513 4.85388451 4.98625099 6.9609375 7.87890625 C7.50782227 8.62575684 8.05470703 9.37260742 8.61816406 10.14208984 C9.19791992 10.9408252 9.77767578 11.73956055 10.375 12.5625 C11.62755964 14.27477216 12.88016512 15.98701078 14.1328125 17.69921875 C14.77250977 18.57626465 15.41220703 19.45331055 16.07128906 20.35693359 C19.12132371 24.53663931 22.18359009 28.70729761 25.25 32.875 C25.83700684 33.67301025 26.42401367 34.47102051 27.02880859 35.29321289 C31.0743324 40.77917974 35.20700294 46.18673985 39.3828125 51.57421875 C43.23391073 56.58124772 46.94941513 61.6897206 50.6875 66.78125 C54.42969481 71.87614293 58.19791694 76.94966186 62 82 C66.29083238 87.69971985 70.53023752 93.43500133 74.75 99.1875 C81.84915152 108.857982 89.1158687 118.39795433 96.4128418 127.91967773 C96.936604 128.60618408 97.46036621 129.29269043 98 130 C98.55703613 130.56501221 99.11407227 131.13002441 99.68798828 131.7121582 C101.75318997 135.31338727 101.36877485 138.84644024 101.29296875 142.921875 C101.28872391 143.78186096 101.28447906 144.64184692 101.28010559 145.52789307 C101.26334116 148.2689167 101.22569345 151.00919939 101.1875 153.75 C101.17245025 155.61066645 101.15876235 157.47134445 101.14648438 159.33203125 C101.11344499 163.8883054 101.06167833 168.44402716 101 173 C96.33213874 169.62289504 92.00129269 166.2327662 88 162.0625 C85.06611866 159.06143054 82.12764156 156.16465879 78.9375 153.4375 C75.16520827 150.21169721 71.71063702 146.72727808 68.2265625 143.1953125 C65.55366826 140.55993257 62.74631697 138.12233511 59.8984375 135.6796875 C57.41040974 133.47834607 55.10805923 131.11911485 52.78125 128.75 C50.91610326 126.91757513 48.98072254 125.20646865 47 123.5 C43.80457308 120.74701681 40.8286528 117.85422302 37.8762207 114.8449707 C36.0610767 113.06005942 34.19109763 111.39050624 32.26171875 109.73046875 C28.18541879 106.18606366 24.23792178 102.52242763 20.3125 98.8125 C18.90402425 97.48657708 17.49516522 96.16106119 16.0859375 94.8359375 C15.04904785 93.86092285 15.04904785 93.86092285 13.99121094 92.86621094 C10.63747679 89.72301037 7.2557767 86.61047349 3.87329102 83.49829102 C0.96350028 80.8186583 -1.93617293 78.12885341 -4.82421875 75.42578125 C-5.79766235 74.51517944 -5.79766235 74.51517944 -6.79077148 73.58618164 C-8.08273838 72.37535509 -9.37266506 71.16234741 -10.66040039 69.94702148 C-14.82883453 66.02872631 -19.11592555 62.33124559 -23.65625 58.84375 C-25 57 -25 57 -24.82299805 54.42822266 C-23.7828025 50.09525742 -22.07042983 46.32445221 -20.17578125 42.3046875 C-19.79189743 41.47599152 -19.40801361 40.64729553 -19.01249695 39.79348755 C-17.78596604 37.1507664 -16.54920132 34.5129744 -15.3125 31.875 C-14.50002022 30.12529279 -13.68816528 28.37529528 -12.87695312 26.625 C-8.72039105 17.67966538 -4.4916562 8.78294112 0 0 Z " fill="#FCFCFC" transform="translate(600,357)"/>
<path d="M0 0 C0.33 0 0.66 0 1 0 C0.99254257 0.81717499 0.98508514 1.63434998 0.97740173 2.47628784 C0.9148283 10.2143674 0.89591237 17.95078878 0.92484188 25.68902397 C0.93820424 29.66659724 0.93526118 33.64270761 0.89379883 37.62011719 C0.85432999 41.46584664 0.85933261 45.30928219 0.89392281 49.15503311 C0.89948006 50.61490487 0.88957267 52.07492789 0.86323357 53.5345726 C0.73508165 61.20620261 1.06225424 66.82290449 6.41040039 72.78759766 C7.92000887 74.21348913 9.44743346 75.62100712 11 77 C12.51829791 78.81820861 14.02309652 80.64800993 15.5 82.5 C18.4081338 86.0947765 21.38541332 89.58260628 24.5 93 C28.41768842 97.29857479 32.08967142 101.75609805 35.74609375 106.27734375 C37.95146704 108.94137353 40.2317631 111.50788442 42.5625 114.0625 C45.41145966 117.19096172 48.13302445 120.36278893 50.75 123.6875 C54.18823885 128.0522104 57.7851084 132.25262097 61.4375 136.4375 C76.21928039 153.40135274 76.21928039 153.40135274 80 160 C74.79545301 162.03299226 69.64725215 163.73255936 64.2109375 165.04296875 C63.15055771 165.30295403 63.15055771 165.30295403 62.0687561 165.56819153 C60.58876634 165.92940372 59.10815533 166.28807936 57.62695312 166.64428711 C55.37146423 167.18835289 53.11935061 167.74508155 50.8671875 168.30273438 C49.41945724 168.65441408 47.97154639 169.00535137 46.5234375 169.35546875 C45.85766693 169.52104782 45.19189636 169.68662689 44.50595093 169.85722351 C40.60217202 170.7832052 37.00407057 171.4611754 33 171 C31.37939453 169.62084961 31.37939453 169.62084961 30.1328125 167.65234375 C29.6483667 166.9140332 29.1639209 166.17572266 28.66479492 165.41503906 C28.1566626 164.59745117 27.64853027 163.77986328 27.125 162.9375 C25.97945938 161.17994909 24.83225079 159.42348449 23.68359375 157.66796875 C22.78423096 156.27457275 22.78423096 156.27457275 21.86669922 154.85302734 C18.74379658 150.08004274 15.4608648 145.42047428 12.1875 140.75 C10.82634785 138.79720605 9.46567486 136.84407803 8.10546875 134.890625 C7.42661621 133.91673828 6.74776367 132.94285156 6.04833984 131.93945312 C2.69581647 127.12844223 -0.65183218 122.31404255 -4 117.5 C-5.32812036 115.5911426 -6.65624537 113.68228844 -7.984375 111.7734375 C-10.70473055 107.8630926 -13.42326918 103.95149249 -16.140625 100.0390625 C-22.28168063 91.1992242 -28.42722738 82.36270671 -34.625 73.5625 C-35.08551758 72.90717285 -35.54603516 72.2518457 -36.02050781 71.57666016 C-36.67937988 70.64345947 -36.67937988 70.64345947 -37.3515625 69.69140625 C-37.77469727 69.0895752 -38.19783203 68.48774414 -38.63378906 67.86767578 C-39.62181169 66.51700153 -40.65020122 65.19554852 -41.70214844 63.89404297 C-42.54181152 62.84627686 -42.54181152 62.84627686 -43.3984375 61.77734375 C-44.17840088 60.83556274 -44.17840088 60.83556274 -44.97412109 59.87475586 C-46 58 -46 58 -45.76757812 55.91015625 C-44.67462813 53.19029596 -43.01524363 51.29917618 -41.125 49.0625 C-39.90296875 47.60457031 -39.90296875 47.60457031 -38.65625 46.1171875 C-37.77183209 45.07727475 -36.88639936 44.03822432 -36 43 C-34.20734576 40.89667191 -32.41558657 38.79258867 -30.625 36.6875 C-30.16287109 36.14536865 -29.70074219 35.6032373 -29.22460938 35.04467773 C-25.92130559 31.14799002 -22.75263257 27.16343916 -19.625 23.125 C-13.47696326 15.19407752 -7.10199566 7.10199566 0 0 Z " fill="#FCFCFC" transform="translate(522,766)"/>
<path d="M0 0 C1.17113799 0.00138269 1.17113799 0.00138269 2.36593533 0.00279331 C3.70584782 0.00073132 3.70584782 0.00073132 5.07282925 -0.00137234 C6.06041225 0.00222294 7.04799526 0.00581821 8.06550503 0.00952244 C9.09952953 0.00937641 10.13355404 0.00923038 11.19891262 0.00907993 C14.63485175 0.00977956 18.07073742 0.01757425 21.50666714 0.02539158 C23.88178382 0.02725558 26.25690089 0.02867957 28.63201809 0.0296793 C34.89727233 0.03350586 41.16250356 0.04333732 47.42774868 0.05438328 C53.81537979 0.06459443 60.2030146 0.06917628 66.59065151 0.0742197 C79.13428115 0.08495947 91.6778948 0.10184656 104.22151089 0.12304783 C104.22151089 0.78304783 104.22151089 1.44304783 104.22151089 2.12304783 C102.29486607 3.62223769 100.36332958 5.00369692 98.34651089 6.37304783 C92.53992961 10.41286596 86.91016404 14.63011837 81.34651089 18.99804783 C75.68406869 23.43744085 69.99310608 27.82641586 64.22151089 32.12304783 C57.63169862 37.03202107 51.13807353 42.05623291 44.66218472 47.11425877 C39.51002548 51.13398313 34.31304597 55.08161121 29.07307339 58.98632908 C25.95807736 61.32044254 22.8673504 63.68490509 19.78401089 66.06054783 C19.24784145 66.47361179 18.71167202 66.88667576 18.15925503 67.31225681 C15.93671652 69.02587297 13.71540577 70.7410652 11.49543667 72.45800877 C10.33931571 73.35212758 9.18282335 74.24576637 8.02595425 75.13891697 C6.44712351 76.35786886 4.86943431 77.57829889 3.29182339 78.79882908 C2.27862026 79.56582127 1.26541714 80.33281345 0.22151089 81.12304783 C-0.27584064 81.55322208 -0.77319218 81.98339634 -1.28561497 82.42660618 C-6.12414235 86.36995299 -9.87479353 86.80460645 -15.99333286 86.61132908 C-16.84907398 86.60425434 -17.7048151 86.5971796 -18.58648777 86.58989048 C-21.29724266 86.56208826 -24.00586757 86.49938057 -26.71598911 86.43554783 C-28.56296431 86.41044646 -30.40997216 86.38763652 -32.25700474 86.36718845 C-36.76497639 86.31230862 -41.2713727 86.22613832 -45.77848911 86.12304783 C-44.39911066 81.62176128 -42.6056883 77.59821231 -40.43473911 73.42382908 C-40.10972919 72.79610096 -39.78471928 72.16837284 -39.44986057 71.52162266 C-38.39694895 69.49071129 -37.3378324 67.46311066 -36.27848911 65.43554783 C-35.54320953 64.02051999 -34.80826715 62.60531688 -34.07365513 61.18994236 C-29.94335833 53.23987159 -25.78880219 45.3023993 -21.59709263 37.38452244 C-18.99301343 32.45804873 -16.42573976 27.51336302 -13.87223911 22.56054783 C-13.53003834 21.89713383 -13.18783756 21.23371983 -12.83526707 20.55020237 C-11.11766805 17.2195453 -9.40242506 13.88770226 -7.69035435 10.55420017 C-7.06224483 9.33492876 -6.43407389 8.11568898 -5.80583286 6.89648533 C-4.96653233 5.26332371 -4.96653233 5.26332371 -4.11027622 3.59716892 C-2.25806258 0.15622794 -2.25806258 0.15622794 0 0 Z " fill="#FAFBFA" transform="translate(249.778489112854,801.8769521713257)"/>
<path d="M0 0 C0 31.35 0 62.7 0 95 C-21.12 95 -42.24 95 -64 95 C-64.24065286 75.23527007 -64.24065286 75.23527007 -64.29296875 66.80664062 C-64.32882934 61.05638389 -64.37123854 55.30670068 -64.45263672 49.55688477 C-64.51785645 44.92084156 -64.55371163 40.28541334 -64.56926346 35.64894676 C-64.5803452 33.88064072 -64.60198607 32.11236814 -64.63438034 30.34432411 C-64.6779813 27.86593695 -64.68393301 25.39008627 -64.68115234 22.91137695 C-64.702724 22.18129425 -64.72429565 21.45121155 -64.746521 20.69900513 C-64.71205414 17.85738369 -64.58572626 15.65822932 -62.64921951 13.48201561 C-61.14731892 12.26007151 -59.5759035 11.12489151 -58 10 C-57.05563651 7.83468832 -57.05563651 7.83468832 -57 6 C-55.33984375 5.609375 -53.6796875 5.21875 -52.01953125 4.828125 C-40.24528302 0 -40.24528302 0 0 0 Z " fill="#FDFDFD" transform="translate(701,195)"/>
<path d="M0 0 C0.99 0.495 0.99 0.495 2 1 C-1.16239582 4.19176092 -4.33068759 7.3776081 -7.5 10.5625 C-8.8303125 11.90538086 -8.8303125 11.90538086 -10.1875 13.27539062 C-13.94860015 17.05031835 -17.68369145 20.79890361 -21.75 24.24609375 C-28.3717849 29.92298543 -34.36950536 36.30489287 -40.5 42.5 C-54.93399712 57.08612457 -54.93399712 57.08612457 -61.04101562 62.26367188 C-65.57221188 66.27985679 -69.75013127 70.68946013 -74 75 C-79.51866731 80.59745182 -85.03427051 86.12128282 -91.01171875 91.234375 C-95.02452272 94.79780799 -98.7370959 98.67669616 -102.5 102.5 C-111.45408897 111.59781432 -111.45408897 111.59781432 -115.9375 115.4375 C-121.06930101 119.84276487 -125.7547029 124.68662116 -130.5 129.5 C-135.85416443 134.93098171 -141.20086208 140.25531363 -146.99414062 145.21679688 C-151.01131494 148.78805311 -154.73113009 152.67063459 -158.5 156.5 C-163.51927509 161.59984131 -168.56045625 166.55183483 -173.99023438 171.21289062 C-177.8330919 174.63000884 -181.39608687 178.33458665 -185 182 C-192.32582837 189.4508425 -199.94334857 196.35326257 -208 203 C-206.756333 199.03013943 -205.30885961 195.40406929 -203.3828125 191.71875 C-202.86452881 190.72343262 -202.34624512 189.72811523 -201.81225586 188.70263672 C-201.25546143 187.6457666 -200.69866699 186.58889648 -200.125 185.5 C-199.25597046 183.83928467 -199.25597046 183.83928467 -198.36938477 182.14501953 C-194.14948652 174.10924975 -189.82629949 166.1332054 -185.45605469 158.1784668 C-180.3036442 148.78015122 -175.36818783 139.27172039 -170.43164062 129.75878906 C-166.9943382 123.13506509 -163.55033396 116.51618168 -160.02832031 109.93701172 C-159.13292665 108.25038937 -158.2633716 106.55009971 -157.3984375 104.84765625 C-153.81188277 98.18548056 -149.42121743 94.86714217 -143 91 C-141.68440233 90.19481619 -140.36933701 89.3887622 -139.0546875 88.58203125 C-136.80303148 87.20393249 -134.54949219 85.8293004 -132.29101562 84.46240234 C-126.53995258 80.97538024 -120.87842238 77.36879849 -115.25 73.6875 C-108.29930086 69.14159305 -101.32428796 64.63867988 -94.3125 60.1875 C-86.30078938 55.10145812 -78.3021412 49.99564474 -70.3125 44.875 C-62.23741159 39.70174243 -54.14752101 34.55339625 -46.03491211 29.43920898 C-39.97376064 25.61761258 -33.92184029 21.78170044 -27.875 17.9375 C-26.4984021 17.06411987 -26.4984021 17.06411987 -25.09399414 16.1730957 C-20.67136448 13.36155841 -16.26707459 10.52765149 -11.8984375 7.6328125 C-11.11098145 7.11340088 -10.32352539 6.59398926 -9.51220703 6.05883789 C-8.03721044 5.08320071 -6.5665856 4.10091188 -5.10107422 3.11108398 C-3.4391342 2.01354128 -1.72406108 0.99712488 0 0 Z " fill="#FAFAFA" transform="translate(472,571)"/>
<path d="M0 0 C0.99 0.495 0.99 0.495 2 1 C-0.7475208 6.20964449 -3.49766999 11.41789465 -6.25 16.625 C-6.66149292 17.40352325 -7.07298584 18.18204651 -7.49694824 18.98416138 C-12.35419236 28.16909776 -17.23937004 37.33502991 -22.25 46.4375 C-27.25005478 55.52583486 -32.02302907 64.72339043 -36.7746582 73.94360352 C-41.05668363 82.2327164 -45.41425274 90.47603515 -49.97290039 98.61694336 C-52.02316367 102.28650109 -54.0264427 105.87538614 -55.5625 109.79296875 C-60.10559892 120.59573522 -69.2531591 124.82768357 -79.04589844 130.32324219 C-83.97541508 133.12125213 -88.7929519 136.10043704 -93.625 139.0625 C-95.56637011 140.24224697 -97.50777597 141.42193512 -99.44921875 142.6015625 C-104.47453372 145.66812022 -109.4649517 148.78623648 -114.4375 151.9375 C-115.55342529 152.64386597 -115.55342529 152.64386597 -116.69189453 153.36450195 C-120.16585398 155.5652652 -123.63774819 157.7691862 -127.10595703 159.97900391 C-130.40004509 162.07559579 -133.69965222 164.16327933 -137 166.25 C-138.56899048 167.25341431 -138.56899048 167.25341431 -140.16967773 168.27709961 C-141.14493408 168.89206299 -142.12019043 169.50702637 -143.125 170.140625 C-143.99382812 170.69266602 -144.86265625 171.24470703 -145.7578125 171.81347656 C-148 173 -148 173 -151 173 C-149.5780575 171.07022089 -148.15610828 169.14044674 -146.73413086 167.21069336 C-145.47702151 165.50455743 -144.22002588 163.79833772 -142.96313477 162.09204102 C-139.7813986 157.77298324 -136.59823713 153.45500212 -133.41015625 149.140625 C-127.73380725 141.45519537 -122.08321093 133.7534235 -116.5 126 C-110.31898737 117.41640731 -104.05214333 108.89798751 -97.76611328 100.39111328 C-94.84043906 96.43008849 -91.92042722 92.46489406 -89 88.5 C-85.49111076 83.73618529 -81.98102197 78.97328202 -78.46484375 74.21484375 C-73.22906057 67.12551953 -68.00304346 60.03076143 -62.85620117 52.87646484 C-61.7495099 51.34183136 -60.63773459 49.81085062 -59.52075195 48.28369141 C-57.23137126 45.14858981 -55.02798 42.04559705 -52.99609375 38.734375 C-45.86761089 27.60263141 -34.06471351 21.70088009 -23 15 C-21.22492274 13.91461455 -19.45016388 12.82870816 -17.67578125 11.7421875 C-15.34724567 10.31741407 -13.01715562 8.89721359 -10.67211914 7.49975586 C-6.8796661 5.22933043 -3.38614955 2.86571022 0 0 Z " fill="#FBFBFA" transform="translate(303,678)"/>
<path d="M0 0 C0.8903595 -0.00137466 1.78071899 -0.00274933 2.69805908 -0.00416565 C3.66191025 -0.00057037 4.62576141 0.0030249 5.61882019 0.00672913 C6.64367523 0.0065831 7.66853027 0.00643707 8.72444153 0.00628662 C12.10616688 0.00698234 15.4878369 0.01475881 18.86955261 0.02259827 C21.21653208 0.02446366 23.56351194 0.02588699 25.91049194 0.02688599 C32.08362404 0.03070163 38.25673256 0.04052381 44.42985535 0.05158997 C50.73071473 0.06182456 57.03157793 0.066388 63.33244324 0.07142639 C75.69247963 0.0821469 88.05249853 0.09921192 100.41252136 0.12025452 C100.4731073 0.96330139 100.53369324 1.80634827 100.59611511 2.67494202 C100.67990417 3.77064514 100.76369324 4.86634827 100.85002136 5.99525452 C100.9312323 7.08580139 101.01244324 8.17634827 101.09611511 9.29994202 C101.2425384 12.06754423 101.2425384 12.06754423 102.41252136 14.12025452 C104.30785478 14.58548515 104.30785478 14.58548515 106.47502136 14.74525452 C107.77439636 14.86900452 109.07377136 14.99275452 110.41252136 15.12025452 C110.13053894 15.78968079 109.84855652 16.45910706 109.55802917 17.14881897 C108.25679175 20.24232177 106.9596403 23.33752268 105.66252136 26.43275452 C105.21908386 27.48527405 104.77564636 28.53779358 104.31877136 29.62220764 C101.77123087 35.71008014 99.40060243 41.8055127 97.29826355 48.06239319 C96.41252136 50.12025452 96.41252136 50.12025452 94.41252136 51.12025452 C94.45892761 50.2372467 94.50533386 49.35423889 94.55314636 48.44447327 C94.88406868 37.44130606 93.19816977 28.56124557 86.10002136 19.90150452 C78.75631038 12.14980959 70.73679524 9.16337389 60.16252136 8.49525452 C50.81971065 8.73821177 41.7974621 13.10114103 35.35002136 19.87025452 C33.78197441 21.91473463 33.78197441 21.91473463 32.41252136 24.12025452 C31.90978699 24.87435608 31.40705261 25.62845764 30.88908386 26.40541077 C27.82071827 31.88947855 27.33127913 35.90350405 27.89274597 42.01307678 C28.73912348 52.14867179 28.73912348 52.14867179 26.12199402 56.03822327 C22.4369542 59.82867162 18.0840798 62.69630185 13.67912292 65.58314514 C10.01878705 68.06542376 6.67826195 70.91206161 3.28752136 73.74525452 C1.97062208 74.81816347 0.65162323 75.88850076 -0.66950989 76.95619202 C-1.3148468 77.47794006 -1.96018372 77.99968811 -2.62507629 78.5372467 C-5.87503228 81.15888326 -9.13048652 83.77301045 -12.39997864 86.37025452 C-13.27130432 87.06949036 -13.27130432 87.06949036 -14.16023254 87.78285217 C-16.63713946 89.73877239 -18.56581079 91.1130319 -21.58747864 92.12025452 C-21.58747864 63.08025452 -21.58747864 34.04025452 -21.58747864 4.12025452 C-5.08211511 -0.00608637 -5.08211511 -0.00608637 0 0 Z " fill="#FAFAFA" transform="translate(658.5874786376953,67.87974548339844)"/>
<path d="M0 0 C0 23.43 0 46.86 0 71 C-15.345 71.495 -15.345 71.495 -31 72 C-32.58476052 73.58476052 -32.16427317 75.22892001 -32.20532227 77.42797852 C-32.22526749 78.36887833 -32.24521271 79.30977814 -32.26576233 80.27919006 C-32.29083107 81.81354958 -32.29083107 81.81354958 -32.31640625 83.37890625 C-32.33718735 84.42070541 -32.35796844 85.46250458 -32.37937927 86.53587341 C-32.44499057 89.87801247 -32.50381331 93.22023285 -32.5625 96.5625 C-32.60567422 98.82227418 -32.64928814 101.08204001 -32.69335938 103.34179688 C-32.80068367 108.89444421 -32.90242812 114.44717321 -33 120 C-40.34195978 113.75318161 -40.34195978 113.75318161 -43.7265625 110.5546875 C-44.35892822 109.95906006 -44.99129395 109.36343262 -45.64282227 108.74975586 C-46.29694092 108.13108643 -46.95105957 107.51241699 -47.625 106.875 C-49.04258857 105.53996078 -50.46056218 104.2053303 -51.87890625 102.87109375 C-52.5764502 102.2147998 -53.27399414 101.55850586 -53.99267578 100.88232422 C-56.83428001 98.21767224 -59.69592459 95.57523303 -62.5625 92.9375 C-67.40992223 88.47339067 -72.24203721 83.99321596 -77.0625 79.5 C-78.01008179 78.6181604 -78.01008179 78.6181604 -78.97680664 77.71850586 C-82.03802924 74.862274 -85.064528 71.98671465 -88 69 C-81.18810046 63.13574606 -74.32618095 57.41050488 -67.15942383 51.98291016 C-62.50771775 48.43868735 -57.99949602 44.73480704 -53.5 41 C-47.4797786 36.00736003 -41.38511761 31.15317892 -35.1640625 26.4140625 C-31.81943963 23.86223913 -28.49758346 21.2838627 -25.1875 18.6875 C-24.61974854 18.24277344 -24.05199707 17.79804688 -23.46704102 17.33984375 C-20.15661175 14.73467383 -16.88149482 12.0911547 -13.62890625 9.4140625 C-12.89969971 8.81505127 -12.17049316 8.21604004 -11.41918945 7.59887695 C-9.99348021 6.42477289 -8.57132134 5.24634182 -7.15307617 4.06323242 C-6.50959229 3.53318604 -5.8661084 3.00313965 -5.203125 2.45703125 C-4.63239258 1.98241455 -4.06166016 1.50779785 -3.47363281 1.01879883 C-2 0 -2 0 0 0 Z " fill="#FCFCFC" transform="translate(628,219)"/>
<path d="M0 0 C23.65523577 -2.33487091 23.65523577 -2.33487091 30.04980469 1.1015625 C33.32371063 4.27783705 34.96180894 8.42235267 36.78222656 12.53955078 C39.17421825 17.37244819 42.48711288 21.63099605 45.625 26 C47.00670567 27.97330322 48.3855752 29.94859509 49.76171875 31.92578125 C50.80658447 33.42165771 50.80658447 33.42165771 51.87255859 34.94775391 C54.01155946 38.01658439 56.14184504 41.09128476 58.26953125 44.16796875 C65.01160981 53.91009225 71.74556809 63.62969212 79 73 C85.6860399 71.96589763 92.21496246 70.32433107 98.78271484 68.72631836 C100.96494752 68.19601804 103.14840652 67.67101881 105.33203125 67.14648438 C106.76320448 66.80023737 108.19419543 66.45323602 109.625 66.10546875 C110.32753906 65.93481903 111.03007813 65.76416931 111.75390625 65.58834839 C117.61782957 64.14145585 123.38106735 62.43881071 129.14453125 60.63012695 C131.98746788 60.00276551 133.34516001 59.89493215 136 61 C138.078125 62.93359375 138.078125 62.93359375 140.25 65.4375 C141.02730469 66.33210937 141.80460938 67.22671875 142.60546875 68.1484375 C153 80.5269168 153 80.5269168 153 82 C103.5 82 54 82 3 82 C10 70 10 70 11 69 C13.93130695 69.03920472 16.82519836 69.1458375 19.75 69.3125 C20.61238281 69.35882568 21.47476562 69.40515137 22.36328125 69.45288086 C28.33665569 69.80952514 34.14540669 70.56780154 40.04296875 71.58984375 C44.69783273 72.2354986 49.31219285 72.16909926 54 72 C54.848062 69.74902184 54.848062 69.74902184 55 67 C53.5341775 64.43194717 53.5341775 64.43194717 51.25 62 C50.41726563 61.03835938 49.58453125 60.07671875 48.7265625 59.0859375 C48.27958008 58.5815918 47.83259766 58.07724609 47.37207031 57.55761719 C45.54403818 55.48237787 43.76775377 53.36573387 41.98925781 51.24804688 C40.6048162 49.60098749 39.21363866 47.95986054 37.8203125 46.3203125 C35.04225816 43.050771 32.27059409 39.7758636 29.5 36.5 C28.58204582 35.41535225 27.66407707 34.33071684 26.74609375 33.24609375 C24.92455368 31.09348214 23.10434671 28.93975381 21.28515625 26.78515625 C20.83575684 26.25325684 20.38635742 25.72135742 19.92333984 25.17333984 C19.02084984 24.10505333 18.11882645 23.03637242 17.21728516 21.96728516 C14.72504562 19.01752441 12.21232592 16.08756744 9.67578125 13.17578125 C9.125271 12.54148193 8.57476074 11.90718262 8.00756836 11.25366211 C6.94060785 10.02586771 5.8699532 8.80127121 4.79516602 7.58032227 C2.61143331 5.0633849 1.06498492 3.19495477 0 0 Z " fill="#F7F8F7" transform="translate(474,873)"/>
<path d="M0 0 C6.22307704 3.82332838 10.71812955 9.83664069 13.5 16.5 C14.5024669 24.97182811 14.41153236 33.48123494 9.0234375 40.39453125 C4.06297372 45.77402964 -0.70439232 49.0963005 -8.0625 49.87890625 C-15.79909774 50.11683733 -20.91629592 49.52337472 -27.5 45.5 C-29.83304122 44.42273599 -29.83304122 44.42273599 -32.5 44.5 C-34.72870434 46.00828409 -36.49386904 47.43090716 -38.4375 49.25 C-39.59559483 50.28226528 -40.75581903 51.31214571 -41.91796875 52.33984375 C-42.5114209 52.8694873 -43.10487305 53.39913086 -43.71630859 53.94482422 C-46.47319663 56.34851664 -49.35472354 58.57916712 -52.25 60.8125 C-59.80346089 66.6833859 -67.16761412 72.77670009 -74.53613281 78.87695312 C-78.84258908 82.43604329 -83.17229698 85.96679969 -87.5 89.5 C-86.97608586 93.35309005 -86.11045963 95.37552119 -83.4375 98.1875 C-80.5 101.30470588 -80.5 101.30470588 -80.5 103.5 C-82.975 104.49 -82.975 104.49 -85.5 105.5 C-86.03625 104.819375 -86.5725 104.13875 -87.125 103.4375 C-89.37659085 101.18393664 -89.37659085 101.18393664 -92.5 101.5 C-95.90606932 102.63535644 -97.45146841 103.55011452 -99.5 106.5 C-99.32919705 109.91605892 -98.14784469 112.53387957 -96.5 115.5 C-97.985 116.49 -97.985 116.49 -99.5 117.5 C-100.27923828 116.50806641 -100.27923828 116.50806641 -101.07421875 115.49609375 C-101.77160156 114.65175781 -102.46898437 113.80742187 -103.1875 112.9375 C-103.87199219 112.09058594 -104.55648437 111.24367188 -105.26171875 110.37109375 C-107.34597817 108.2049976 -107.34597817 108.2049976 -110.09375 108.59375 C-113.08368409 109.71982907 -115.12098957 111.39287647 -117.5 113.5 C-120.97899158 112.10840337 -121.98052501 110.86748512 -123.5 107.5 C-114.71573667 100.19324121 -105.89962707 92.97228493 -96.8046875 86.0546875 C-92.29352942 82.59659003 -87.90986033 78.98113911 -83.50927734 75.38427734 C-79.23180888 71.89290502 -74.91819268 68.45562599 -70.5625 65.0625 C-64.44475261 60.29277573 -58.41656039 55.41574311 -52.50244141 50.39501953 C-48.78030575 47.25465583 -45.22349737 44.77592939 -40.9375 42.4375 C-38.77359832 40.38655473 -37.62095881 39.14906566 -37.0690918 36.18774414 C-37.07162964 34.93658813 -37.07162964 34.93658813 -37.07421875 33.66015625 C-37.06656494 32.73920166 -37.05891113 31.81824707 -37.05102539 30.86938477 C-37.12289204 28.08176516 -37.29684957 25.31364982 -37.4765625 22.53125 C-37.75171344 16.32119778 -35.91653447 11.67284501 -31.875 6.875 C-23.66086172 -1.9786819 -11.43566226 -4.97105786 0 0 Z " fill="#F4F3F2" transform="translate(731.5,86.5)"/>
<path d="M0 0 C1.47100072 -0.01930979 2.94254106 -0.01006953 4.41333008 0.02148438 C5.21020233 0.02022049 6.00707458 0.0189566 6.82809448 0.01765442 C9.44732519 0.02288561 12.06408948 0.06722025 14.68286133 0.11523438 C16.50048461 0.13279032 18.31811167 0.14995808 20.13574219 0.16674805 C36.37330304 0.38007015 52.37178054 1.69452158 68.49536133 3.61523438 C70.57735149 3.84607404 72.65938044 4.07656418 74.74145508 4.30664062 C87.59763218 5.79470852 100.16515894 8.25709013 112.80004883 11.03076172 C116.68978771 11.87424314 120.59071174 12.6567283 124.49536133 13.42773438 C126.25879883 13.77771484 126.25879883 13.77771484 128.05786133 14.13476562 C128.86223633 14.29332031 129.66661133 14.451875 130.49536133 14.61523438 C126.8336967 16.76030964 122.95547265 17.51321889 118.84692383 18.34960938 C118.0904808 18.50807846 117.33403778 18.66654755 116.55467224 18.82981873 C114.07767588 19.3471181 111.59908513 19.85628258 109.12036133 20.36523438 C107.39689455 20.72333849 105.67350654 21.08182192 103.95019531 21.44067383 C92.27082792 23.86612249 80.57669019 26.21534224 68.87524414 28.53173828 C62.32193812 29.83330015 55.78145973 31.17717559 49.25512695 32.6081543 C47.36585886 33.02211123 45.47526167 33.43005886 43.58325195 33.83129883 C38.98572797 34.81136241 34.44631146 35.88399206 29.91333008 37.13085938 C17.18700182 40.47327746 17.18700182 40.47327746 12.79223633 38.24414062 C10.62203442 35.84752002 9.11732389 33.40946846 7.49536133 30.61523438 C6.00153554 28.75982885 4.47967457 26.92670171 2.93286133 25.11523438 C2.19293945 24.19484375 1.45301758 23.27445313 0.69067383 22.32617188 C-0.74251439 20.55636293 -2.20521774 18.80994242 -3.69995117 17.09179688 C-4.35737305 16.31578125 -5.01479492 15.53976563 -5.69213867 14.74023438 C-6.28381836 14.0621875 -6.87549805 13.38414062 -7.48510742 12.68554688 C-8.50463867 10.61523438 -8.50463867 10.61523438 -7.86791992 8.16992188 C-7.41803711 7.326875 -6.9681543 6.48382813 -6.50463867 5.61523438 C-5.96492432 4.31706787 -5.96492432 4.31706787 -5.41430664 2.99267578 C-3.50463867 0.61523438 -3.50463867 0.61523438 0 0 Z " fill="#FBFBFB" transform="translate(765.504638671875,119.384765625)"/>
<path d="M0 0 C2.39116098 0.00094983 4.78245264 0.0348433 7.17285156 0.09521484 C9.06212372 0.10794937 9.06212372 0.10794937 10.98956299 0.12094116 C14.33115183 0.14883652 17.67026813 0.20268838 21.01116943 0.26916504 C24.42291944 0.33065264 27.83492539 0.35796959 31.24707031 0.38818359 C37.93655487 0.45436113 44.624873 0.55478467 51.31347656 0.68115234 C48.50200745 3.53529743 45.69483912 6.3018876 42.59863281 8.84521484 C41.58047485 9.68354858 41.58047485 9.68354858 40.54174805 10.53881836 C39.82704346 11.12203857 39.11233887 11.70525879 38.37597656 12.30615234 C37.62453369 12.92224365 36.87309082 13.53833496 36.09887695 14.1730957 C30.96618325 18.36793441 25.78201739 22.4913607 20.55395508 26.56640625 C16.09377136 30.04836241 11.69676534 33.60302161 7.31347656 37.18115234 C2.37405776 41.21325863 -2.5946395 45.19936091 -7.62402344 49.11865234 C-12.90813753 53.23778879 -18.09104516 57.46783136 -23.24902344 61.74365234 C-29.21879199 66.68968924 -35.26854055 71.48968162 -41.43652344 76.18505859 C-51.3723957 83.77462112 -61.03516801 91.73533789 -70.68652344 99.68115234 C-71.34652344 99.35115234 -72.00652344 99.02115234 -72.68652344 98.68115234 C-49.15935888 63.95946354 -49.15935888 63.95946354 -39.06542969 49.48583984 C-22.1329018 27.31829144 -22.1329018 27.31829144 -8.26855469 3.38989258 C-5.18541263 0.15545034 -4.32696699 0.22853996 0 0 Z " fill="#FAFAFA" transform="translate(469.6865234375,291.31884765625)"/>
<path d="M0 0 C22.99822559 -3.62377184 22.99822559 -3.62377184 30.67089844 1.93505859 C35.52606969 7.27196863 38.89607725 13.53045097 42.27050781 19.87011719 C44.90370834 24.63545185 48.05915322 28.97249442 51.25 33.375 C52.39720236 35.00724049 53.54177998 36.64132922 54.68359375 38.27734375 C58.37208668 43.53476619 62.07897231 48.77912914 65.78710938 54.02270508 C70.23496899 60.31854447 74.62776751 66.6514301 79 73 C84.49498277 72.31862214 89.76113223 71.17525832 95.125 69.8125 C95.98448242 69.5969043 96.84396484 69.38130859 97.72949219 69.15917969 C105.15230604 67.27193262 112.51136782 65.17836805 119.84423828 62.96801758 C122.22017436 62.26625938 124.60027778 61.61512273 127 61 C127.72243896 60.80736572 128.44487793 60.61473145 129.18920898 60.41625977 C131.26171875 59.98828125 131.26171875 59.98828125 135 60 C137.38194205 61.81888005 138.77074243 63.14859185 140.5625 65.4375 C141.02575684 65.98647949 141.48901367 66.53545898 141.96630859 67.10107422 C142.89512364 68.20422369 143.81399299 69.31583234 144.72216797 70.43603516 C146.45683258 72.55912677 148.29100226 74.58764317 150.125 76.625 C151.71287141 78.4256006 152.92653924 79.85307848 154 82 C143.1255325 82.32562013 132.2522395 82.57374261 121.37387466 82.72537041 C116.32121848 82.79818157 111.27191666 82.89676264 106.22119141 83.05615234 C101.33846365 83.20926067 96.45894175 83.29217098 91.5739975 83.3282814 C89.71895627 83.35398042 87.86407409 83.40417388 86.01041412 83.48022079 C71.92600654 84.03459503 71.92600654 84.03459503 67.07691956 80.66278839 C63.58683775 77.43191821 60.8649966 73.75951133 58.24459076 69.80911636 C56.22581243 66.87465386 53.89544406 64.25222086 51.5625 61.5625 C50.65482333 60.49079002 49.74841376 59.4180045 48.84375 58.34375 C45.23368084 54.08649757 41.57103702 49.87506391 37.91088867 45.66088867 C2.36093177 4.72186355 2.36093177 4.72186355 0 0 Z " fill="#F7F7F6" transform="translate(569,873)"/>
<path d="M0 0 C11.44205559 -0.43147416 22.19619687 0.57251124 33.45751953 2.55566406 C35.91503084 2.98515039 38.37635584 3.37996026 40.83984375 3.7734375 C60.5814441 7.12488138 79.49584543 14.35078495 97 24 C98.04929687 24.56203125 99.09859375 25.1240625 100.1796875 25.703125 C105.80858869 28.83191683 111.01162536 32.35146752 116.125 36.25 C116.6821167 36.67458496 117.2392334 37.09916992 117.81323242 37.53662109 C120.40004591 39.56213347 122.158628 41.23794201 124 44 C121.15806355 43.49251135 118.31615594 42.98486693 115.47436523 42.4765625 C112.94048116 42.0247654 110.40611816 41.57564791 107.87133789 41.12890625 C101.80091273 40.05701844 95.73946864 38.96406135 89.69921875 37.73046875 C56.48216615 31.09859648 21.8612712 28.22755631 -12 28 C-8.29843854 18.50982648 -4.37658806 9.20325078 0 0 Z " fill="#FAFAFA" transform="translate(778,83)"/>
<path d="M0 0 C4.42880759 -0.22379308 8.8545637 -0.38636162 13.28735352 -0.49438477 C14.79216867 -0.53943718 16.2965943 -0.60070654 17.80004883 -0.67895508 C30.16156592 -1.3058401 30.16156592 -1.3058401 34.30151367 1.63476562 C36.15470936 3.98497989 37.55626116 6.37937451 39 9 C40.33033554 10.90026508 41.67888749 12.78787425 43.04296875 14.6640625 C44.42708456 16.64922765 45.80856806 18.63623055 47.1875 20.625 C48.23454102 22.12160156 48.23454102 22.12160156 49.30273438 23.6484375 C52.7820795 28.65392734 56.09447065 33.63941096 59 39 C55.0357481 39.24971061 51.07460874 39.42974164 47.10424805 39.54931641 C45.10106469 39.62357048 43.10006666 39.75073501 41.09960938 39.87890625 C31.50322183 40.12062886 31.50322183 40.12062886 27.2019043 36.9140625 C24.91348282 34.38345387 22.93342511 31.80816656 21 29 C20.19949219 28.04609375 19.39898437 27.0921875 18.57421875 26.109375 C17.95160156 25.33078125 17.32898438 24.5521875 16.6875 23.75 C14.11134007 20.54807073 11.49328213 17.4050321 8.765625 14.33203125 C8.21430908 13.70651367 7.66299316 13.08099609 7.0949707 12.43652344 C6.00782235 11.20733641 4.91282633 9.9850364 3.80932617 8.77050781 C0 4.44496744 0 4.44496744 0 0 Z " fill="#F9F9F9" transform="translate(436,826)"/>
<path d="M0 0 C26.7605206 -3.63964504 26.7605206 -3.63964504 34.92480469 2.03173828 C39.87987089 7.36912125 43.2190053 13.61432527 46.47167969 20.08837891 C48.59843926 24.14009371 51.2233294 27.68985128 54 31.3125 C58 36.6947961 58 36.6947961 58 39 C31.02148902 41.42497481 31.02148902 41.42497481 24.71875 36.26953125 C22.07210755 33.41409271 20.02768412 30.22954893 18.1015625 26.85546875 C16.43928895 24.0555399 14.35804104 21.66093482 12.25 19.1875 C11.54488281 18.31222656 10.83976563 17.43695312 10.11328125 16.53515625 C7.36617456 13.23964379 4.42855675 10.14117125 1.43359375 7.0703125 C-0.33584974 4.51498539 -0.11494173 3.04110135 0 0 Z " fill="#F9F9F9" transform="translate(532,826)"/>
<path d="M0 0 C4.35288908 4.13524463 8.93174644 8.48973145 9.8359375 14.671875 C9.95987262 22.45500059 8.05663705 27.28012357 3.125 33.25 C-1.84568397 37.27388703 -6.8085049 37.83718307 -13.0390625 37.6875 C-18.26146936 37.02433722 -21.85078567 34.33192862 -25.3125 30.4375 C-29.66554359 24.34323898 -30.48059513 18.73462449 -29.5 11.375 C-27.54861125 5.99279754 -23.91975367 2.01250444 -18.9453125 -0.77734375 C-12.69889719 -2.94263468 -5.96353822 -2.7687856 0 0 Z " fill="#0B0B0B" transform="translate(729.5,92.625)"/>
<path d="M0 0 C14.52 0 29.04 0 44 0 C44 0.66 44 1.32 44 2 C42.5234375 3.3046875 42.5234375 3.3046875 40.375 4.875 C29.27501968 13.26553631 19.00932531 22.72999703 8.71484375 32.07421875 C8.00457031 32.70972656 7.29429687 33.34523438 6.5625 34 C5.94503906 34.556875 5.32757812 35.11375 4.69140625 35.6875 C3 37 3 37 0 38 C0 25.46 0 12.92 0 0 Z " fill="#F1F1F1" transform="translate(709,494)"/>
<path d="M0 0 C3.18432499 1.23244013 3.80179799 2.10762894 6 5 C7.04183444 9.96499227 6.7838421 13.71972457 4.125 18.0625 C0.56762864 21.30598565 -2.07663388 21.33766248 -6.7421875 21.28515625 C-10.11376856 20.85933373 -11.74020743 19.46522826 -14 17 C-16.28582634 13.73453379 -16.40058025 10.92568648 -16 7 C-12.49911614 -0.33518523 -7.53101691 -1.08586755 0 0 Z " fill="#F8F8F7" transform="translate(724,100)"/>
<path d="M0 0 C0.66 0 1.32 0 2 0 C2 0.66 2 1.32 2 2 C59.42 2 116.84 2 176 2 C176 2.33 176 2.66 176 3 C117.26 3 58.52 3 -2 3 C-1.34 2.01 -0.68 1.02 0 0 Z " fill="#EFEFEF" transform="translate(391,406)"/>
<path d="M0 0 C1.32 0.66 2.64 1.32 4 2 C2.61811547 5.21043882 1.07578097 7.04936365 -1.625 9.25 C-2.25664062 9.77078125 -2.88828125 10.2915625 -3.5390625 10.828125 C-4.02117187 11.21484375 -4.50328125 11.6015625 -5 12 C-3.68938409 7.76570244 -2.05643741 3.92592596 0 0 Z " fill="#E6E4E2" transform="translate(269,762)"/>
<path d="M0 0 C9.24 0 18.48 0 28 0 C28 0.33 28 0.66 28 1 C23.89587259 1.16764279 19.79169203 1.3339474 15.6875 1.5 C13.93663086 1.57154297 13.93663086 1.57154297 12.15039062 1.64453125 C11.03212891 1.68964844 9.91386719 1.73476563 8.76171875 1.78125 C7.2142395 1.8440918 7.2142395 1.8440918 5.63549805 1.90820312 C3.75788811 1.97360204 1.87874855 2 0 2 C0 1.34 0 0.68 0 0 Z " fill="#D0CFD1" transform="translate(474,873)"/>
<path d="M0 0 C0.66 0.33 1.32 0.66 2 1 C-0.64 3.64 -3.28 6.28 -6 9 C-6.66 8.34 -7.32 7.68 -8 7 C-5.42215154 4.35247996 -3.08351902 2.05567935 0 0 Z " fill="#E6E6E9" transform="translate(472,571)"/>
<path d="M0 0 C0.66 0.33 1.32 0.66 2 1 C-0.02882906 3.94180214 -2.05819786 5.97117094 -5 8 C-5.66 7.67 -6.32 7.34 -7 7 C-4.69 4.69 -2.38 2.38 0 0 Z " fill="#BBBBBD" transform="translate(499,558)"/>
<path d="M0 0 C0 0.99 0 1.98 0 3 C-3 5.1875 -3 5.1875 -6 7 C-6.66 6.34 -7.32 5.68 -8 5 C-4.04 2.525 -4.04 2.525 0 0 Z " fill="#DCDEDE" transform="translate(406,613)"/>
<path d="M0 0 C0.66 0.33 1.32 0.66 2 1 C0.515 4.465 0.515 4.465 -1 8 C-1.33 8 -1.66 8 -2 8 C-1.125 1.125 -1.125 1.125 0 0 Z " fill="#D9D6D6" transform="translate(755,111)"/>
</svg>
